<svg width="24" height="24" viewBox="0 0 24 24" fill="none" xmlns="http://www.w3.org/2000/svg">
<circle cx="12" cy="12" r="12" fill="#FF7A00"/>
<path d="M16.5223 7.08476C16.7491 6.86767 17.0509 6.74765 17.3641 6.75003C17.6772 6.75242 17.9772 6.87701 18.2007 7.09753C18.4242 7.31805 18.5538 7.61724 18.5621 7.93197C18.5704 8.2467 18.4567 8.55236 18.2451 8.78444L11.8209 16.862C11.7105 16.9816 11.5771 17.0776 11.4289 17.1442C11.2807 17.2109 11.1207 17.2468 10.9583 17.2498C10.796 17.2528 10.6348 17.2229 10.4842 17.1618C10.3336 17.1008 10.1969 17.0098 10.0821 16.8944L5.82184 12.6112C5.7032 12.5 5.60804 12.366 5.54204 12.2171C5.47604 12.0681 5.44055 11.9074 5.43769 11.7444C5.43483 11.5813 5.46465 11.4194 5.52539 11.2682C5.58612 11.1171 5.67652 10.9798 5.79118 10.8645C5.90585 10.7492 6.04244 10.6583 6.1928 10.5972C6.34316 10.5362 6.50421 10.5062 6.66635 10.5091C6.82849 10.5119 6.98839 10.5476 7.13651 10.614C7.28464 10.6803 7.41795 10.776 7.5285 10.8953L10.9 14.2833L16.4917 7.12037C16.5018 7.10791 16.5125 7.09602 16.5239 7.08476H16.5223Z" fill="white"/>
</svg>
