<svg width="122" height="34" viewBox="0 0 122 34" fill="none" xmlns="http://www.w3.org/2000/svg">
<path d="M19.32 16.1451C19.2976 12.5492 22.2684 10.8079 22.4042 10.7268C20.7311 8.2644 18.1285 7.92146 17.2136 7.89218C15.0275 7.65526 12.9022 9.19356 11.7883 9.19051C10.6521 9.18741 8.94031 7.89188 7.09145 7.92476C4.71232 7.95507 2.48292 9.33131 1.25641 11.4745C-1.27466 15.8445 0.586521 22.2815 2.99034 25.8259C4.19291 27.563 5.59836 29.5003 7.44508 29.4373C9.25179 29.3686 9.92954 28.2893 12.1096 28.2953C14.2696 28.3012 14.9001 29.4577 16.7835 29.4193C18.7223 29.3945 19.9477 27.6875 21.1175 25.9424C22.5181 23.9614 23.0837 22.0061 23.1063 21.9057C23.0618 21.89 19.346 20.454 19.32 16.1451ZM15.7914 5.56097C16.7664 4.34419 17.4357 2.68699 17.2558 1.00293C15.8493 1.06156 14.0881 1.9705 13.0721 3.16039C12.1732 4.20891 11.3681 5.92933 11.5704 7.54986C13.1498 7.67244 14.7743 6.75867 15.7914 5.56097Z" fill="white"/>
<path d="M45.4502 29.2925L42.9255 29.2856L41.5545 24.9206L36.7475 24.9075L35.4182 29.2651L32.9603 29.2583L37.7645 14.4239L40.706 14.432L45.4502 29.2925ZM41.1426 23.0898L39.9026 19.2094C39.7713 18.8129 39.5249 17.8795 39.1643 16.4103L39.1198 16.4102C38.9713 17.0413 38.7342 17.9733 38.4095 19.2053L37.1694 23.0789L41.1426 23.0898ZM57.6916 23.8412C57.6867 25.662 57.1902 27.0999 56.2013 28.1538C55.316 29.0919 54.2175 29.5586 52.909 29.555C51.496 29.5511 50.4813 29.0429 49.8671 28.0282L49.8518 33.6457L47.4816 33.6392L47.5131 22.1109C47.5163 20.9673 47.4895 19.7946 47.4349 18.5918L49.5194 18.5975L49.647 20.2948L49.6915 20.2949C50.4854 19.0185 51.6867 18.3825 53.2964 18.3869C54.5548 18.3903 55.604 18.8919 56.4417 19.8928C57.2783 20.8958 57.6961 22.2112 57.6916 23.8412ZM55.2768 23.9217C55.2796 22.8796 55.0485 22.0199 54.5812 21.3414C54.0707 20.636 53.3835 20.2816 52.5208 20.2792C51.9361 20.2776 51.4041 20.4725 50.9284 20.8584C50.4515 21.2476 50.1388 21.7566 49.9915 22.3876C49.9258 22.6236 49.8882 22.8666 49.8794 23.1114L49.8746 24.8976C49.8724 25.6753 50.1085 26.333 50.5829 26.8721C51.0572 27.4089 51.6746 27.6795 52.435 27.6816C53.3277 27.684 54.0234 27.3389 54.5223 26.6519C55.0222 25.9627 55.2737 25.053 55.2768 23.9217ZM69.9614 23.8748C69.9564 25.6956 69.46 27.1335 68.4711 28.1873C67.5847 29.1254 66.4873 29.5921 65.1777 29.5885C63.7647 29.5847 62.75 29.0765 62.1358 28.0618L62.1204 33.6792L59.7503 33.6727L59.7818 22.1444C59.785 21.0008 59.7581 19.8282 59.7036 18.6253L61.7881 18.631L61.9157 20.3283L61.9602 20.3285C62.753 19.052 63.9542 18.416 65.5651 18.4204C66.8224 18.4239 67.8716 18.9255 68.7116 19.9263C69.547 20.9294 69.9659 22.2448 69.9614 23.8748ZM67.5455 23.9552C67.5483 22.9132 67.3161 22.0534 66.8488 21.3749C66.3383 20.6696 65.6533 20.3151 64.7906 20.3128C64.2059 20.3112 63.6739 20.5061 63.196 20.8919C62.7191 21.2811 62.4075 21.7901 62.2602 22.4212C62.1871 22.7155 62.1475 22.9553 62.147 23.145L62.1421 24.9312C62.14 25.7088 62.3772 26.3666 62.8493 26.9056C63.3237 27.4413 63.9411 27.713 64.7037 27.7151C65.5975 27.7176 66.2932 27.3725 66.7909 26.6855C67.2909 25.9962 67.5424 25.0865 67.5455 23.9552ZM83.6762 25.2321C83.6727 26.4962 83.2297 27.5225 82.3526 28.3134C81.3875 29.1765 80.0423 29.6069 78.3191 29.6021C76.7272 29.5978 75.4518 29.2864 74.4908 28.6668L75.0442 26.6857C76.082 27.3066 77.2229 27.6177 78.4657 27.6211C79.3595 27.6235 80.0549 27.4224 80.5518 27.021C81.0499 26.6185 81.3026 26.0792 81.3044 25.4053C81.3061 24.8017 81.0996 24.2957 80.6927 23.8829C80.2836 23.4712 79.6065 23.0867 78.6548 22.7327C76.0672 21.7561 74.7748 20.3345 74.7799 18.4691C74.7832 17.2508 75.244 16.2546 76.1599 15.4772C77.0759 14.701 78.2887 14.3149 79.7961 14.319C81.1424 14.3227 82.2635 14.5612 83.1526 15.0333L82.5526 16.9708C81.7156 16.5133 80.7702 16.2831 79.7118 16.2802C78.8759 16.2779 78.2194 16.4825 77.7491 16.8918C77.3535 17.2578 77.1521 17.7046 77.1507 18.2357C77.1491 18.8214 77.3757 19.3085 77.8282 19.6913C78.2208 20.0438 78.9379 20.4284 79.9751 20.8418C81.2477 21.3608 82.1821 21.9636 82.7794 22.6547C83.3812 23.3458 83.679 24.2068 83.6762 25.2321ZM91.5455 20.4975L88.933 20.4903L88.9188 25.6883C88.9152 27.0104 89.3737 27.671 90.2964 27.6735C90.7199 27.6747 91.0713 27.6399 91.3494 27.5659L91.4101 29.3724C90.9427 29.5463 90.3277 29.6327 89.5662 29.6307C88.6301 29.6281 87.8994 29.3394 87.3729 28.7645C86.8487 28.1896 86.5867 27.2283 86.5904 25.8761L86.6052 20.4795L85.0488 20.4753L85.0537 18.6902L86.61 18.6944L86.6154 16.7342L88.9452 16.0354L88.9379 18.7008L91.5504 18.7079L91.5455 20.4975ZM103.3 24.0095C103.296 25.6551 102.823 27.0049 101.884 28.0589C100.901 29.144 99.597 29.6826 97.9728 29.6782C96.4053 29.6739 95.1605 29.1495 94.234 28.106C93.3074 27.0603 92.8463 25.7448 92.8507 24.1594C92.8552 22.5004 93.3392 21.1428 94.2992 20.0889C95.2615 19.0338 96.5548 18.5085 98.1789 18.513C99.7442 18.5172 101 19.0428 101.949 20.0875C102.855 21.1008 103.304 22.4073 103.3 24.0095ZM100.843 24.0574C100.846 23.0767 100.637 22.2349 100.215 21.5298C99.7205 20.6783 99.0102 20.2512 98.0886 20.2487C97.1392 20.2461 96.4099 20.6692 95.9117 21.518C95.4852 22.2208 95.2716 23.076 95.2688 24.0868C95.2661 25.0686 95.4751 25.9126 95.8978 26.6155C96.408 27.4671 97.1216 27.8941 98.0477 27.8966C98.9537 27.8991 99.6653 27.4671 100.181 26.6061C100.619 25.8865 100.84 25.0403 100.843 24.0574ZM111.016 20.8575C110.77 20.8122 110.52 20.7895 110.269 20.7897C109.435 20.7874 108.79 21.1002 108.334 21.7327C107.939 22.2895 107.74 22.994 107.737 23.8453L107.722 29.4627L105.352 29.4563L105.372 22.1218C105.377 20.9979 105.357 19.8741 105.312 18.7511L107.377 18.7568L107.458 20.8054L107.523 20.8056C107.776 20.1023 108.171 19.5355 108.713 19.1119C109.208 18.7418 109.81 18.5423 110.428 18.5431C110.647 18.5437 110.844 18.5599 111.02 18.5882L111.016 20.8575ZM121.609 23.6411C121.614 24.0027 121.584 24.364 121.519 24.7197L114.408 24.7003C114.432 25.758 114.775 26.569 115.434 27.1286C116.031 27.6278 116.806 27.8799 117.757 27.8825C118.81 27.8854 119.771 27.7206 120.636 27.3849L121.002 29.036C119.992 29.4751 118.799 29.6916 117.424 29.6879C115.77 29.6833 114.473 29.1911 113.531 28.2134C112.591 27.2346 112.122 25.9213 112.126 24.2779C112.131 22.6646 112.573 21.3215 113.456 20.2517C114.379 19.1095 115.625 18.5406 117.19 18.5449C118.728 18.5491 119.89 19.1246 120.677 20.2714C121.301 21.1802 121.612 22.3057 121.609 23.6411ZM119.35 23.018C119.369 22.3118 119.215 21.7033 118.895 21.1881C118.487 20.5243 117.856 20.1923 117.01 20.19C116.235 20.1879 115.603 20.5086 115.121 21.1544C114.725 21.6676 114.488 22.2851 114.414 23.0022L119.35 23.018Z" fill="white"/>
<path d="M36.1074 9.16998C35.4481 9.16818 34.8779 9.13427 34.4034 9.0783L34.423 1.90002C35.0872 1.79891 35.7583 1.75001 36.43 1.75378C39.1481 1.76121 40.3962 3.10679 40.3903 5.29464C40.3834 7.8183 38.9011 9.17762 36.1074 9.16998ZM36.5231 2.67447C36.1563 2.67347 35.8438 2.69493 35.5847 2.74777L35.5697 8.20456C35.7097 8.22726 35.9787 8.23803 36.3567 8.23907C38.1377 8.24394 39.1543 7.22921 39.1595 5.32363C39.1642 3.62445 38.2496 2.67919 36.5231 2.67447ZM44.2804 9.247C42.7485 9.24281 41.7589 8.09206 41.7632 6.53346C41.7676 4.90903 42.7846 3.75373 44.3821 3.75809C45.8918 3.76222 46.9038 4.85836 46.8994 6.46159C46.8949 8.1061 45.8457 9.25128 44.2804 9.247ZM44.3376 4.61259C43.496 4.61029 42.9547 5.39871 42.9517 6.50324C42.9487 7.58656 43.4968 8.37797 44.3161 8.38021C45.1355 8.38245 45.6881 7.53938 45.6909 6.48841C45.6939 5.41736 45.1569 4.61483 44.3376 4.61259ZM55.6422 3.8971L53.9881 9.15416L52.9198 9.15124L52.2468 6.86447C52.0794 6.30511 51.9403 5.7376 51.8301 5.16414L51.8078 5.16408C51.7207 5.73731 51.5568 6.31144 51.383 6.86211L50.6541 9.14504L49.5747 9.14209L48.046 3.87633L49.2433 3.87961L49.8301 6.38258C49.9686 6.97874 50.0849 7.54136 50.1812 8.07269L50.2035 8.07275C50.2903 7.63006 50.4319 7.07707 50.6394 6.39595L51.3911 3.8866L52.3405 3.88919L53.0464 6.34898C53.2171 6.94522 53.3555 7.53022 53.463 8.08278L53.4941 8.08287C53.5712 7.54197 53.6917 6.96772 53.8546 6.35119L54.4983 3.89509L55.6422 3.8971ZM61.6644 9.17515L60.4993 9.17196L60.5076 6.1507C60.5101 5.22023 60.1556 4.7529 59.4542 4.75098C58.7638 4.7491 58.2875 5.34357 58.2856 6.03641L58.277 9.16589L57.112 9.1627L57.1222 5.40509C57.1235 4.93986 57.1138 4.44112 57.083 3.89993L58.108 3.90273L58.1602 4.71509L58.1925 4.71518C58.5075 4.15373 59.1444 3.79846 59.857 3.8004C60.9576 3.80341 61.6778 4.64996 61.6741 6.02447L61.6644 9.17515ZM64.8772 9.18393L63.711 9.18074L63.732 1.50487L64.8982 1.50806L64.8772 9.18393ZM69.1246 9.31492C67.5938 9.31074 66.6031 8.15999 66.6074 6.60138C66.6118 4.97696 67.6288 3.82165 69.2252 3.82602C70.736 3.83015 71.7469 4.92628 71.7425 6.52952C71.7392 8.17403 70.6888 9.3192 69.1246 9.31492ZM69.1807 4.68051C68.3391 4.67821 67.7978 5.46664 67.7948 6.57116C67.7918 7.65448 68.341 8.44589 69.1581 8.44813C69.9786 8.45037 70.5301 7.6073 70.5329 6.55633C70.537 5.48528 70.0011 4.68275 69.1807 4.68051ZM76.3288 9.21524L76.2459 8.6092L76.2148 8.60911C75.8577 9.09569 75.3379 9.33191 74.6798 9.33011C73.7404 9.32754 73.0752 8.66524 73.0776 7.77716C73.0812 6.47851 74.2047 5.80993 76.1468 5.81524L76.1471 5.71818C76.149 5.02534 75.7842 4.67737 75.0616 4.67539C74.5447 4.67398 74.0907 4.80327 73.6909 5.06214L73.4562 4.29279C73.9418 3.99065 74.5469 3.84057 75.2573 3.84251C76.6269 3.84625 77.3164 4.57334 77.3124 6.02483L77.3071 7.96277C77.3057 8.49383 77.3279 8.90558 77.3793 9.21923L76.3288 9.21524ZM76.1758 6.59407C74.8818 6.59054 74.2317 6.90338 74.2297 7.64977C74.2282 8.20203 74.5621 8.47294 75.0268 8.47421C75.6193 8.47583 76.1719 8.02326 76.1736 7.40629L76.1758 6.59407ZM82.9611 9.23337L82.909 8.38866L82.8767 8.38857C82.5404 9.02582 81.977 9.35006 81.191 9.34791C79.927 9.34446 78.994 8.22622 78.9983 6.65646C79.0028 5.01083 79.9765 3.8543 81.3016 3.85792C82.0031 3.85984 82.4994 4.09884 82.7782 4.57711L82.8016 4.57718L82.8098 1.55703L83.976 1.56022L83.9589 7.81806C83.9575 8.32681 83.9684 8.80324 83.9984 9.23621L82.9611 9.23337ZM82.7973 6.1369C82.7993 5.40055 82.3152 4.77109 81.5737 4.76906C80.7099 4.7667 80.1798 5.53396 80.1768 6.61617C80.1739 7.67718 80.72 8.40499 81.5404 8.40723C82.273 8.40923 82.7928 7.77136 82.7949 7.01382L82.7973 6.1369ZM91.3486 9.37569C89.8178 9.3715 88.8282 8.22075 88.8324 6.66215C88.8369 5.03772 89.8539 3.88242 91.4503 3.88678C92.9611 3.89091 93.972 4.98705 93.9676 6.59028C93.9642 8.23479 92.915 9.37997 91.3486 9.37569ZM91.4046 4.74127C90.5642 4.73898 90.0228 5.5274 90.0198 6.63192C90.0168 7.71525 90.565 8.50665 91.3832 8.50889C92.2036 8.51113 92.7551 7.66807 92.758 6.6171C92.7631 5.54605 92.2261 4.74352 91.4046 4.74127ZM100.226 9.28058L99.0596 9.27739L99.0679 6.25613C99.0704 5.32566 98.716 4.85833 98.0145 4.85641C97.3241 4.85452 96.8489 5.449 96.847 6.14184L96.8385 9.27132L95.6723 9.26813L95.6826 5.51052C95.6838 5.04528 95.6741 4.54654 95.6433 4.00535L96.6683 4.00815L96.7206 4.82052L96.7528 4.82061C97.0667 4.25916 97.7047 3.90277 98.4162 3.90471C99.5168 3.90772 100.238 4.75427 100.234 6.12878L100.226 9.28058ZM108.076 4.91739L106.795 4.91389L106.788 7.46879C106.786 8.11923 107.009 8.44451 107.463 8.44575C107.669 8.44631 107.841 8.42447 107.98 8.39249L108.01 9.28066C107.784 9.36707 107.482 9.40975 107.106 9.40873C106.188 9.40621 105.64 8.89596 105.643 7.56384L105.651 4.91076L104.886 4.90867L104.888 4.03174L105.653 4.03383L105.656 3.06989L106.801 2.72604L106.797 4.03585L108.079 4.03935L108.076 4.91739ZM114.232 9.31887L113.068 9.31569L113.076 6.31674C113.079 5.37511 112.726 4.89775 112.023 4.89583C111.419 4.89418 110.856 5.30432 110.853 6.13774L110.845 9.30961L109.681 9.30643L109.702 1.63056L110.866 1.63374L110.857 4.79446L110.88 4.79452C111.249 4.22207 111.781 3.94125 112.459 3.94311C113.569 3.94614 114.244 4.81376 114.241 6.18939L114.232 9.31887ZM120.557 6.98653L117.061 6.97697C117.081 7.97333 117.736 8.53743 118.709 8.54009C119.226 8.5415 119.702 8.45578 120.122 8.29516L120.301 9.10787C119.805 9.32295 119.221 9.42958 118.542 9.42772C116.902 9.42324 115.934 8.38077 115.939 6.76861C115.943 5.15534 116.94 3.94532 118.426 3.94938C119.765 3.95304 120.603 4.95164 120.599 6.45669C120.606 6.63433 120.592 6.81217 120.557 6.98653ZM119.491 6.15019C119.494 5.33798 119.087 4.76341 118.342 4.76137C117.673 4.75954 117.142 5.34271 117.064 6.14356L119.491 6.15019Z" fill="white"/>
</svg>
