<svg width="25" height="24" viewBox="0 0 25 24" fill="none" xmlns="http://www.w3.org/2000/svg">
<g clip-path="url(#clip0_4380_31336)">
<path d="M11.4777 15.934C9.59362 15.6786 7.87684 14.7172 6.67454 13.2443C5.47223 11.7714 4.87412 9.8969 5.00115 7.99985C5.12818 6.10279 5.97087 4.32475 7.35882 3.0253C8.74676 1.72585 10.5764 1.00195 12.4777 1C14.3813 0.998168 16.2144 1.72028 17.6054 3.01993C18.9963 4.31959 19.841 6.09953 19.9682 7.99891C20.0953 9.89829 19.4955 11.775 18.2903 13.2485C17.085 14.722 15.3646 15.682 13.4777 15.934V18H18.4777V20H13.4777V24H11.4777V20H6.47769V18H11.4777V15.934ZM12.4777 14C13.9364 14 15.3353 13.4205 16.3668 12.3891C17.3982 11.3576 17.9777 9.95869 17.9777 8.5C17.9777 7.04131 17.3982 5.64237 16.3668 4.61092C15.3353 3.57947 13.9364 3 12.4777 3C11.019 3 9.62005 3.57947 8.5886 4.61092C7.55715 5.64237 6.97769 7.04131 6.97769 8.5C6.97769 9.95869 7.55715 11.3576 8.5886 12.3891C9.62005 13.4205 11.019 14 12.4777 14Z" fill="white"/>
</g>
<defs>
<clipPath id="clip0_4380_31336">
<rect width="24" height="24" fill="white" transform="translate(0.477539)"/>
</clipPath>
</defs>
</svg>
