<svg width="40" height="40" viewBox="0 0 40 40" fill="none" xmlns="http://www.w3.org/2000/svg">
<g clip-path="url(#clip0_5523_68320)">
<circle cx="20" cy="20" r="19.6875" fill="#FFEB74" stroke="#EBEBF0" stroke-width="0.625"/>
<path d="M19.277 24.3559C19.277 27.1596 17.0552 29.4221 14.327 29.4221C11.5988 29.4221 9.3769 27.1596 9.3769 24.3559C9.3769 21.5522 11.5988 19.2897 14.327 19.2897C17.0552 19.2897 19.277 21.5522 19.277 24.3559Z" fill="white" stroke="#111111" stroke-width="0.548721"/>
<path d="M18.9784 22.7888C19.6454 25.1809 18.4706 27.5244 16.3698 28.0331C14.2691 28.5417 12.0185 27.0275 11.3515 24.6355C10.6845 22.2434 11.8592 19.8999 13.96 19.3912C16.0608 18.8826 18.3113 20.3968 18.9784 22.7888Z" fill="#111111" stroke="#111111" stroke-width="0.0914535"/>
<path d="M29.9079 20.0661C29.9079 22.8698 27.686 25.1323 24.9578 25.1323C22.2296 25.1323 20.0078 22.8698 20.0078 20.0661C20.0078 17.2624 22.2296 14.9999 24.9578 14.9999C27.686 14.9999 29.9079 17.2624 29.9079 20.0661Z" fill="white" stroke="#111111" stroke-width="0.548721"/>
<path d="M29.6453 18.3727C30.3124 20.7647 29.1376 23.1083 27.0368 23.6169C24.9361 24.1256 22.6855 22.6114 22.0185 20.2193C21.3514 17.8273 22.5262 15.4837 24.627 14.9751C26.7277 14.4664 28.9783 15.9806 29.6453 18.3727Z" fill="#111111" stroke="#111111" stroke-width="0.0914535"/>
<path d="M20.2285 29.9345C20.9386 30.2823 21.8281 30.3784 22.7201 30.1394C24.0473 29.7838 24.9987 28.7885 25.2074 27.6825" stroke="#111111" stroke-width="0.731628" stroke-linecap="round"/>
<path d="M13.2205 16.5525C13.5813 17.2263 13.4533 18.1202 11.5198 19.0331C9.58625 19.9459 8.87327 19.7474 8.51247 19.0736C8.15167 18.3998 8.49166 17.4119 10.2132 16.5931C11.9347 15.7743 12.8597 15.8787 13.2205 16.5525Z" fill="#FFB700"/>
<path d="M23.7879 12.0369C24.1487 12.7107 24.0207 13.6046 22.0871 14.5174C20.1536 15.4302 19.4407 15.2318 19.0799 14.558C18.7191 13.8842 19.059 12.8963 20.7806 12.0775C22.5021 11.2586 23.4271 11.3631 23.7879 12.0369Z" fill="#FFB700"/>
<path d="M9.51131 15.8972C9.19819 15.4991 9.26758 14.9236 9.67508 14.5391L-nan -nanL9.67508 14.5391C10.7252 13.5483 12.1175 12.9382 13.5578 12.838L-nan -nanL13.5578 12.838C14.1167 12.7991 14.5868 13.1382 14.6672 13.6383L14.7225 13.9826C14.8337 14.6742 14.5262 15.4016 13.9168 15.8885L-nan -nanL13.9168 15.8885C13.2713 16.4043 12.491 16.7461 11.6742 16.871L-nan -nanL11.6742 16.871C10.9032 16.989 10.16 16.7219 9.72691 16.1713L9.51131 15.8972Z" fill="#595857"/>
<path d="M9.51131 15.8972C9.19819 15.4991 9.26758 14.9236 9.67508 14.5391L-nan -nanL9.67508 14.5391C10.7252 13.5483 12.1175 12.9382 13.5578 12.838L-nan -nanL13.5578 12.838C14.1167 12.7991 14.5868 13.1382 14.6672 13.6383L14.7225 13.9826C14.8337 14.6742 14.5262 15.4016 13.9168 15.8885L-nan -nanL13.9168 15.8885C13.2713 16.4043 12.491 16.7461 11.6742 16.871L-nan -nanL11.6742 16.871C10.9032 16.989 10.16 16.7219 9.72691 16.1713L9.51131 15.8972Z" fill="#3C3C3C"/>
<path d="M9.51131 15.8972L9.72691 16.1713C9.93485 16.4356 10.2143 16.6346 10.5339 16.757L11.5003 13.3414C10.8294 13.6313 10.2081 14.0361 9.67508 14.5391C9.26758 14.9236 9.19819 15.4991 9.51131 15.8972Z" fill="#595857"/>
<path d="M21.6147 10.5906C21.5343 10.0905 21.0642 9.75144 20.5053 9.79034L-nan -nanL20.5053 9.79034C19.065 9.89059 17.6727 10.5006 16.6226 11.4915L-nan -nanL16.6226 11.4915C16.2151 11.876 16.1457 12.4515 16.4588 12.8495L16.6744 13.1236C17.1075 13.6742 17.8507 13.9413 18.6217 13.8234L-nan -nanL18.6217 13.8234C19.4385 13.6985 20.2188 13.3566 20.8644 12.8408L-nan -nanL20.8644 12.8408C21.4737 12.354 21.7812 11.6266 21.67 10.9349L21.6147 10.5906Z" fill="#3C3C3C"/>
<path d="M16.4674 12.8485L16.683 13.1226C16.8909 13.3869 17.1703 13.5859 17.49 13.7083L18.4564 10.2927C17.7854 10.5826 17.1642 10.9874 16.6311 11.4904C16.2236 11.8749 16.1542 12.4504 16.4674 12.8485Z" fill="#595857"/>
<path fill-rule="evenodd" clip-rule="evenodd" d="M16.1949 13.4625L15.9793 13.1884C15.931 13.127 15.8887 13.0628 15.8524 12.9964C15.7083 12.8571 15.5377 12.7584 15.3682 12.8326C15.2288 12.8938 15.1695 13.0373 15.1572 13.1972C15.1987 13.2963 15.2291 13.4017 15.2468 13.5122L15.3022 13.8565C15.4434 14.7355 15.0527 15.6599 14.2784 16.2785C13.5421 16.8667 12.6523 17.2566 11.7208 17.3991C10.7411 17.5489 9.79665 17.2095 9.24625 16.5098L9.03065 16.2357C8.88079 16.0452 8.78887 15.8278 8.75275 15.6012C8.73626 15.6043 8.71971 15.6071 8.70313 15.6096C8.44812 15.6482 8.2025 15.5596 8.05951 15.3773L8.04883 15.3637C7.91519 15.1933 7.97066 14.942 8.17172 14.8069L10.0816 13.5235C10.1204 13.4974 10.1602 13.4731 10.2011 13.4506C11.2009 12.7886 12.3699 12.3854 13.569 12.302C13.6618 12.2955 13.753 12.296 13.8419 12.3028C14.2676 12.2547 14.6704 12.1914 15.0202 12.0382C15.3701 11.8849 15.6062 11.6681 15.8947 11.4033C16.0902 11.2238 16.3097 11.0222 16.605 10.8034C17.4065 10.152 18.3525 9.68364 19.3546 9.4373C19.3988 9.42253 19.4437 9.40968 19.4892 9.39884L21.249 8.979C21.4835 8.84741 22.2661 8.51941 23.047 8.19215C23.5016 8.00167 23.9555 7.81144 24.3004 7.66032L24.301 7.6614C24.6787 7.49609 25.2664 7.40081 25.3304 7.9577C25.3849 8.43146 24.8052 8.87234 24.1534 8.73036L21.9306 9.82049C21.9282 9.82234 21.9258 9.82419 21.9233 9.82603C21.9214 9.82752 21.9194 9.829 21.9174 9.83049C22.0595 10.0107 22.157 10.2256 22.1955 10.4649L22.2508 10.8092C22.3921 11.6882 22.0014 12.6126 21.227 13.2312C20.4908 13.8194 19.601 14.2093 18.6695 14.3518C17.6897 14.5016 16.7453 14.1622 16.1949 13.4625ZM21.3675 10.0944C21.161 9.88407 20.8516 9.76578 20.5089 9.78964C19.0686 9.88988 17.6763 10.4999 16.6262 11.4908C16.2187 11.8753 16.1493 12.4508 16.4625 12.8488L16.6781 13.1229C17.1112 13.6735 17.8544 13.9406 18.6253 13.8227C19.4422 13.6978 20.2224 13.3559 20.868 12.8401C21.4773 12.3533 21.7848 11.6259 21.6736 10.9342L21.6183 10.5899C21.5872 10.3965 21.4978 10.2271 21.3675 10.0944ZM11.1335 13.5141C11.6184 13.2668 12.1347 13.0816 12.6667 12.9653C12.9607 12.9011 13.2594 12.8579 13.5602 12.8369C14.0834 12.8005 14.5288 13.0953 14.6495 13.5433C14.6567 13.57 14.6628 13.5974 14.6677 13.6252C14.6683 13.6292 14.669 13.6332 14.6697 13.6372L14.725 13.9815C14.8223 14.5867 14.599 15.2193 14.1335 15.6941C14.067 15.7619 13.9955 15.8266 13.9193 15.8874C13.3545 16.3387 12.6865 16.6569 11.9811 16.8131C11.8803 16.8354 11.7788 16.8544 11.6767 16.87C10.9057 16.9879 10.1625 16.7209 9.7294 16.1702L9.5138 15.8962C9.39268 15.7422 9.3288 15.5617 9.31957 15.3759C9.30494 15.0815 9.42769 14.7739 9.67757 14.5381C10.1114 14.1287 10.6036 13.7843 11.1335 13.5141Z" fill="black"/>
</g>
<defs>
<clipPath id="clip0_5523_68320">
<rect width="40" height="40" fill="white"/>
</clipPath>
</defs>
</svg>
