<svg width="327" height="130" viewBox="0 0 327 130" fill="none" xmlns="http://www.w3.org/2000/svg">
<rect width="327" height="130" rx="16" fill="#F6F5F2"/>
<path d="M49.6778 28.3298C46.7733 26.3807 42.8027 27.7281 41.6904 31.0451L40.0527 35.9255C39.512 37.53 38.24 38.7849 36.6229 39.294L31.71 40.8419C28.3677 41.8962 26.9515 45.8355 28.857 48.7719L31.6585 53.0918C32.5803 54.5163 32.7657 56.2905 32.158 57.8744L30.3092 62.6777C29.0527 65.9433 31.2516 69.5072 34.7381 69.8466L39.8673 70.3506C41.5565 70.5151 43.0602 71.482 43.9203 72.9425L46.5261 77.3806C48.2976 80.3993 52.4587 80.9033 54.8997 78.3937L58.4943 74.7064C59.6788 73.4927 61.3731 72.9168 63.0519 73.1585L68.1554 73.8939C71.6213 74.3927 74.6134 71.4562 74.1705 67.9849L73.5216 62.8783C73.3104 61.1966 73.913 59.515 75.1489 58.3527L78.9032 54.8248C81.4524 52.4284 81.0198 48.2628 78.0277 46.4474L73.6246 43.7681C72.1775 42.8887 71.2351 41.3665 71.096 39.6745L70.6737 34.5422C70.3905 31.0554 66.8577 28.7978 63.5669 30.0012L58.7261 31.7703C57.1348 32.3514 55.3581 32.1354 53.947 31.1943L49.6675 28.3247L49.6778 28.3298Z" fill="#FFB700"/>
<path d="M53.0304 71.9655C42.9421 71.9655 34.7639 63.7987 34.7639 53.7244C34.7639 43.6502 42.9421 35.4834 53.0304 35.4834C63.1187 35.4834 71.2969 43.6502 71.2969 53.7244C71.2969 63.7987 63.1187 71.9655 53.0304 71.9655Z" fill="#FFEB74"/>
<path opacity="0.2" d="M63.5828 62.7105C61.4581 62.7105 59.7358 60.9906 59.7358 58.8689C59.7358 56.7473 61.4581 55.0273 63.5828 55.0273C65.7074 55.0273 67.4297 56.7473 67.4297 58.8689C67.4297 60.9906 65.7074 62.7105 63.5828 62.7105Z" fill="#FFB700"/>
<path opacity="0.2" d="M45.1824 62.7105C43.0578 62.7105 41.3354 60.9906 41.3354 58.8689C41.3354 56.7473 43.0578 55.0273 45.1824 55.0273C47.307 55.0273 49.0293 56.7473 49.0293 58.8689C49.0293 60.9906 47.307 62.7105 45.1824 62.7105Z" fill="#FFB700"/>
<path d="M56.1282 59.3583C55.7214 59.7646 55.1291 60.0372 54.4596 60.0834C53.4606 60.1503 52.5697 59.6875 52.168 58.9726" stroke="#251700" stroke-width="1.05055" stroke-linecap="round"/>
<path d="M48.4735 46.8331C46.5475 46.8691 45.945 47.1211 45.9965 47.8925C46.048 48.6639 46.6247 49.1422 48.7825 49.1062C50.9455 49.0702 51.8982 48.2113 51.584 47.2599C51.0845 46.2931 50.3996 46.7971 48.4735 46.8331V46.8331Z" fill="#FFB700"/>
<path d="M56.8254 47.2599C56.5113 48.2113 57.4692 49.0702 59.6269 49.1062C61.7899 49.1422 62.3615 48.6639 62.413 47.8925C62.4645 47.1211 61.862 46.8691 59.9359 46.8331C58.0099 46.7971 57.3198 46.2931 56.8254 47.2599V47.2599Z" fill="#FFB700"/>
<path d="M59.7607 59.3012C57.1185 59.3012 54.9765 57.1622 54.9765 54.5236C54.9765 51.8851 57.1185 49.7461 59.7607 49.7461C62.403 49.7461 64.5449 51.8851 64.5449 54.5236C64.5449 57.1622 62.403 59.3012 59.7607 59.3012Z" fill="white"/>
<path d="M58.5311 58.2941C56.5743 58.2941 54.988 56.71 54.988 54.7559C54.988 52.8019 56.5743 51.2178 58.5311 51.2178C60.4879 51.2178 62.0742 52.8019 62.0742 54.7559C62.0742 56.71 60.4879 58.2941 58.5311 58.2941Z" fill="#3C2400"/>
<path d="M61.3415 57.4762C60.7556 57.4762 60.2806 57.0019 60.2806 56.4168C60.2806 55.8317 60.7556 55.3574 61.3415 55.3574C61.9274 55.3574 62.4023 55.8317 62.4023 56.4168C62.4023 57.0019 61.9274 57.4762 61.3415 57.4762Z" fill="white"/>
<path d="M59.7609 58.9774C57.2979 58.9774 55.3012 56.9835 55.3012 54.5239C55.3012 52.0642 57.2979 50.0703 59.7609 50.0703C62.224 50.0703 64.2207 52.0642 64.2207 54.5239C64.2207 56.9835 62.224 58.9774 59.7609 58.9774Z" stroke="#251700" stroke-width="1.05055"/>
<path d="M48.3349 59.3012C45.6927 59.3012 43.5507 57.1622 43.5507 54.5236C43.5507 51.8851 45.6927 49.7461 48.3349 49.7461C50.9772 49.7461 53.1191 51.8851 53.1191 54.5236C53.1191 57.1622 50.9772 59.3012 48.3349 59.3012Z" fill="white"/>
<path d="M47.1053 58.2941C45.1485 58.2941 43.5623 56.71 43.5623 54.7559C43.5623 52.8019 45.1485 51.2178 47.1053 51.2178C49.0621 51.2178 50.6484 52.8019 50.6484 54.7559C50.6484 56.71 49.0621 58.2941 47.1053 58.2941Z" fill="#3C2400"/>
<path d="M49.9157 57.4762C49.3298 57.4762 48.8548 57.0019 48.8548 56.4168C48.8548 55.8317 49.3298 55.3574 49.9157 55.3574C50.5016 55.3574 50.9766 55.8317 50.9766 56.4168C50.9766 57.0019 50.5016 57.4762 49.9157 57.4762Z" fill="white"/>
<path d="M48.3352 58.9774C45.8721 58.9774 43.8754 56.9835 43.8754 54.5239C43.8754 52.0642 45.8721 50.0703 48.3352 50.0703C50.7982 50.0703 52.7949 52.0642 52.7949 54.5239C52.7949 56.9835 50.7982 58.9774 48.3352 58.9774Z" stroke="#251700" stroke-width="1.05055"/>
<path d="M63.2128 40.0747C63.1758 39.4959 62.677 39.058 62.0356 39.0414L-nan -nanL-nan -nanL62.0356 39.0414C60.3829 38.9984 58.7292 39.5417 57.424 40.5565L-nan -nanL-nan -nanL57.424 40.5565C56.9175 40.9504 56.7756 41.5988 57.089 42.0867L57.3049 42.4227C57.7385 43.0977 58.5565 43.4832 59.4482 43.433L-nan -nanL-nan -nanL59.4482 43.433C60.3929 43.3797 61.3197 43.0753 62.1119 42.5578L-nan -nanL-nan -nanL62.1119 42.5578C62.8596 42.0694 63.2895 41.2738 63.2383 40.4732L63.2128 40.0747Z" fill="#595857"/>
<path d="M63.2128 40.0747C63.1758 39.4959 62.677 39.058 62.0356 39.0414L-nan -nanL-nan -nanL62.0356 39.0414C60.3829 38.9984 58.7292 39.5417 57.424 40.5565L-nan -nanL-nan -nanL57.424 40.5565C56.9175 40.9504 56.7756 41.5988 57.089 42.0867L57.3049 42.4227C57.7385 43.0977 58.5565 43.4832 59.4482 43.433L-nan -nanL-nan -nanL59.4482 43.433C60.3929 43.3797 61.3197 43.0753 62.1119 42.5578L-nan -nanL-nan -nanL62.1119 42.5578C62.8596 42.0694 63.2895 41.2738 63.2383 40.4732L63.2128 40.0747Z" fill="#3C3C3C"/>
<path d="M63.2128 40.0747L63.2383 40.4732C63.2629 40.8576 63.1766 41.2408 62.9975 41.5894L59.5636 39.4142C60.3574 39.1488 61.1966 39.0195 62.0356 39.0414C62.677 39.058 63.1758 39.4959 63.2128 40.0747Z" fill="#595857"/>
<path d="M48.8354 44.7949C48.5219 44.3069 48.6639 43.6585 49.1704 43.2647L-nan -nanL-nan -nanL49.1704 43.2647C50.4755 42.2499 52.1292 41.7065 53.782 41.7495L-nan -nanL-nan -nanL53.782 41.7495C54.4233 41.7662 54.9222 42.2041 54.9592 42.7829L54.9847 43.1814C55.0359 43.9819 54.606 44.7775 53.8582 45.266L-nan -nanL-nan -nanL53.8582 45.266C53.066 45.7834 52.1393 46.0879 51.1946 46.1411L-nan -nanL-nan -nanL51.1946 46.1411C50.3028 46.1914 49.4848 45.8058 49.0512 45.1309L48.8354 44.7949Z" fill="#3C3C3C"/>
<path d="M54.9531 42.7905L54.9786 43.189C55.0032 43.5734 54.9168 43.9566 54.7377 44.3052L51.3038 42.13C52.0976 41.8646 52.9369 41.7354 53.7758 41.7572C54.4172 41.7739 54.9161 42.2117 54.9531 42.7905Z" fill="#595857"/>
<path fill-rule="evenodd" clip-rule="evenodd" d="M55.6534 43.1027L55.6279 42.7042C55.6222 42.6149 55.6092 42.5279 55.5895 42.4435C55.6059 42.2146 55.6761 42 55.8773 41.9339C56.043 41.8794 56.2032 41.9566 56.3359 42.0836C56.3762 42.1999 56.4308 42.3129 56.5001 42.4208L56.7159 42.7568C57.2669 43.6145 58.3064 44.1045 59.4396 44.0406C60.517 43.9799 61.5738 43.6327 62.4773 43.0426C63.4275 42.4219 63.9738 41.4109 63.9088 40.3935L63.8833 39.995C63.8656 39.718 63.7779 39.4623 63.6356 39.2414C63.652 39.2314 63.6682 39.2212 63.6843 39.2107C63.9313 39.0488 64.0732 38.7855 64.0559 38.5208L64.0546 38.501C64.0384 38.2536 63.7991 38.0816 63.5244 38.12L60.9147 38.4843C60.8617 38.4917 60.8091 38.5014 60.7571 38.5134C59.3985 38.7126 58.0933 39.2618 57.0067 40.1067C56.9226 40.172 56.8452 40.2421 56.7746 40.3159C56.3746 40.6 55.9827 40.8538 55.5673 40.9903C55.1517 41.1268 54.7847 41.1223 54.3363 41.1168C54.0324 41.113 53.6911 41.1088 53.2721 41.1478C52.0907 41.2044 50.9259 41.5277 49.883 42.0831C49.834 42.1042 49.7859 42.1276 49.7388 42.1531L47.9169 43.1394C47.6163 43.2063 46.6981 43.5244 45.782 43.8419C45.2487 44.0267 44.7162 44.2112 44.3065 44.3458L44.3069 44.3471C43.8584 44.4947 43.2842 44.8624 43.6551 45.3864C43.9706 45.8321 44.8019 45.7653 45.2494 45.1462L47.9783 44.378C47.9818 44.3777 47.9853 44.3774 47.9888 44.3771C47.9916 44.3769 47.9944 44.3767 47.9972 44.3764C48.0136 44.6387 48.0947 44.8965 48.2447 45.13L48.4606 45.466C49.0116 46.3237 50.0511 46.8137 51.1842 46.7498C52.2616 46.6891 53.3185 46.3419 54.2219 45.7518C55.1721 45.1311 55.7185 44.1201 55.6534 43.1027ZM48.6679 44.1815C48.6834 43.8442 48.8569 43.507 49.1675 43.2655C50.4727 42.2507 52.1264 41.7073 53.7791 41.7503C54.4205 41.767 54.9193 42.2049 54.9563 42.7836L54.9818 43.1822C55.033 43.9827 54.6031 44.7783 53.8554 45.2667C53.0632 45.7842 52.1364 46.0887 51.1917 46.1419C50.3 46.1922 49.482 45.8066 49.0484 45.1317L48.8325 44.7957C48.7113 44.6069 48.6582 44.3942 48.6679 44.1815ZM60.0102 39.2799C59.4077 39.4394 58.8258 39.6759 58.2832 39.9831C57.9833 40.1529 57.6955 40.3443 57.4229 40.5563C56.9488 40.9249 56.7941 41.5166 57.0333 41.991C57.0476 42.0193 57.0633 42.0473 57.0805 42.0747C57.0829 42.0787 57.0854 42.0826 57.0879 42.0865L57.3037 42.4224C57.6831 43.013 58.3568 43.382 59.1167 43.4314C59.2253 43.4385 59.3356 43.439 59.4471 43.4327C60.2737 43.3861 61.0866 43.1472 61.8076 42.7415C61.9106 42.6836 62.0117 42.6222 62.1107 42.5575C62.8585 42.0691 63.2884 41.2735 63.2372 40.473L63.2117 40.0744C63.1974 39.8506 63.114 39.6478 62.98 39.4823C62.7675 39.2199 62.4278 39.0513 62.0345 39.0411C61.3517 39.0233 60.6687 39.1056 60.0102 39.2799Z" fill="black"/>
<path d="M94 30H281C289.837 30 297 37.1634 297 46V82C297 90.8366 289.837 98 281 98H110C101.163 98 94 90.8366 94 82V30Z" fill="white"/>
<path d="M126.328 45.2344H124.328V55.625H126.328V45.2344ZM114.547 52.5781L115.5 54.125C117.188 53.6484 118.344 52.6016 118.984 51.2812C119.633 52.4922 120.766 53.4375 122.406 53.8906L123.359 52.3281C121.016 51.6953 119.938 50.1172 119.953 48.5312V48.4219H122.859V46.875H119.969V45.2969H117.938V46.875H115.031V48.4219H117.938V48.5312C117.945 50.2188 116.898 51.8906 114.547 52.5781ZM116.797 59.1875H126.703V57.5938H118.812V54.7031H116.797V59.1875ZM139.543 46.0469H129.574V47.6406H137.559C137.551 48.8672 137.52 50.2656 137.153 52.0938H128.09V53.7031H133.512V59.4531H135.512V53.7031H141.059V52.0938H139.176C139.535 50.1016 139.535 48.6562 139.543 47.3281V46.0469ZM146.368 46.1719C144.125 46.1641 142.407 47.6172 142.414 49.6562C142.407 51.7031 144.125 53.1484 146.368 53.1562C148.625 53.1484 150.297 51.7031 150.305 49.6562C150.297 47.6172 148.625 46.1641 146.368 46.1719ZM141.821 54.9375L142.055 56.5625C144.539 56.5625 147.914 56.5391 151.071 55.9219L150.914 54.4844C147.875 54.9141 144.36 54.9453 141.821 54.9375ZM144.399 49.6562C144.391 48.5469 145.243 47.8906 146.368 47.8906C147.5 47.8906 148.36 48.5469 148.368 49.6562C148.36 50.7812 147.5 51.4297 146.368 51.4219C145.243 51.4297 144.391 50.7812 144.399 49.6562ZM151.727 59.4688H153.711V45.2188H151.727V59.4688ZM170.173 45.2188H168.173V59.4062H170.173V52.3125H172.188V50.6719H170.173V45.2188ZM158.798 55.4219L159.923 56.9531C164.704 54.6016 166.36 50.9219 166.376 46.6719H159.61V48.2969H164.352C163.977 51.4688 162.165 53.7344 158.798 55.4219ZM184.528 45.2188H182.528V52.8594H184.528V45.2188ZM172.841 49.1875C172.841 51.125 174.513 52.5156 176.731 52.5156C178.942 52.5156 180.614 51.125 180.622 49.1875C180.614 47.1875 178.942 45.7969 176.731 45.8125C174.513 45.7969 172.841 47.1875 172.841 49.1875ZM174.794 49.1875C174.778 48.1172 175.591 47.4609 176.731 47.4688C177.841 47.4609 178.645 48.1172 178.653 49.1875C178.645 50.2422 177.841 50.875 176.731 50.875C175.591 50.875 174.778 50.2422 174.794 49.1875ZM175.013 59.2812H184.528V53.4844H182.544V54.8125H176.981V53.4844H175.013V59.2812ZM176.981 57.6719V56.3594H182.544V57.6719H176.981ZM198.196 45.2188H196.181V59.4688H198.196V45.2188ZM186.712 51.2812C186.704 54.4062 188.29 56.3594 190.478 56.3594C192.618 56.3594 194.212 54.4062 194.212 51.2812C194.212 48.1797 192.618 46.2188 190.478 46.2188C188.29 46.2188 186.704 48.1797 186.712 51.2812ZM188.634 51.2812C188.626 49.1719 189.368 48.0156 190.478 48.0156C191.556 48.0156 192.282 49.1719 192.29 51.2812C192.282 53.3984 191.556 54.5547 190.478 54.5469C189.368 54.5547 188.626 53.3984 188.634 51.2812ZM207.767 45.7969C205.673 45.8047 204.181 46.9688 204.189 48.6875C204.181 50.1016 205.228 51.1719 206.798 51.4844V52.6016C205.587 52.6328 204.439 52.6406 203.454 52.6406L203.658 54.2188C206.033 54.2266 209.29 54.1562 212.22 53.6406L212.064 52.1875C211.025 52.3359 209.915 52.4375 208.798 52.5078V51.4688C210.322 51.1406 211.337 50.0781 211.345 48.6875C211.337 46.9688 209.845 45.8047 207.767 45.7969ZM205.329 59.1719H215.345V57.5781H207.329V55.125H205.329V59.1719ZM206.048 48.6875C206.033 47.7969 206.759 47.3125 207.767 47.2969C208.783 47.3125 209.47 47.7969 209.47 48.6875C209.47 49.5547 208.79 50.0547 207.767 50.0625C206.759 50.0547 206.033 49.5547 206.048 48.6875ZM212.861 56.0781H214.861V51.3594H216.673V49.7031H214.861V45.2344H212.861V56.0781ZM230.169 56.2188H226.982V54.0469H228.997V52.4375H220.654V50.8594H228.669V46.1406H218.638V47.7344H226.701V49.2656H218.654V54.0469H220.482V56.2188H217.154V57.8594H230.169V56.2188ZM222.419 56.2188V54.0469H225.029V56.2188H222.419ZM239.291 51H233.806V48.0625H239.213V46.4844H231.822V52.5938H234.525V54.9922C233.252 55.0234 232.017 55.0234 230.884 55.0156L231.119 56.6406C233.791 56.6406 237.025 56.6172 240.134 56.1406L239.978 54.6875C238.869 54.8047 237.697 54.8828 236.525 54.9297V52.5938H239.291V51ZM240.791 59.4688H242.775V45.2188H240.791V59.4688ZM251.834 46.375H245.084V53.2969H251.834V52.0938H254.49V55.5781H256.474V45.2344H254.49V47.4531H251.834V46.375ZM247.006 59.1875H256.771V57.5938H249.021V54.5938H247.006V59.1875ZM247.068 51.75V47.9531H249.881V51.75H247.068ZM251.834 50.5156V49.0625H254.49V50.5156H251.834ZM126.656 69.2188H124.656V72.3594H122.969V73.9531H124.656V79.5469H126.656V69.2188ZM114.156 76.125L115.234 77.5312C116.203 76.9375 116.805 76.0156 117.172 74.9453C117.508 76.0625 118.102 77.0625 119.094 77.6875C120.07 77.0703 120.656 76.1016 121 75C121.367 76.0547 121.977 76.9531 122.938 77.5312L124.031 76.125C122.375 75.1016 121.922 73.25 121.922 71.4688V70.1719H120.047V71.4688C120.055 72.75 119.898 74.1797 119.094 75.3047C118.281 74.1719 118.109 72.7188 118.109 71.4688V70.1719H116.234V71.4688C116.234 73.1719 115.797 75.0938 114.156 76.125ZM116.734 83.1875H126.984V81.5938H118.734V78.5781H116.734V83.1875ZM139.543 70.0469H129.574V71.6406H137.559C137.551 72.8672 137.52 74.2656 137.153 76.0938H128.09V77.7031H133.512V83.4531H135.512V77.7031H141.059V76.0938H139.176C139.535 74.1016 139.535 72.6562 139.543 71.3281V70.0469ZM153.68 69.2188H151.696V83.4688H153.68V69.2188ZM142.508 72.0156H147.243V74.3125H142.524V80.1406H143.805C146.399 80.1406 148.516 80.0547 150.852 79.6406L150.68 78.0312C148.594 78.375 146.758 78.4844 144.586 78.5V75.8906H149.274V70.4062H142.508V72.0156ZM166.645 69.2188H164.645V83.4062H166.645V76.3125H168.661V74.6719H166.645V69.2188ZM155.27 79.4219L156.395 80.9531C161.176 78.6016 162.833 74.9219 162.848 70.6719H156.083V72.2969H160.825C160.45 75.4688 158.637 77.7344 155.27 79.4219ZM178.138 73.0938V72.2188H181.106V70.5938H173.075V72.2188H176.091V73.0938C176.091 75.5 174.872 78.1328 172.513 79.1875L173.653 80.7656C175.333 79.9922 176.513 78.4297 177.153 76.5625C177.794 78.2812 178.95 79.6953 180.622 80.4062L181.7 78.8438C179.317 77.8516 178.13 75.3906 178.138 73.0938ZM182.513 83.4375H184.528V69.2188H182.513V83.4375ZM189.806 77.3125H187.853V83.2812H197.696V77.3125H195.728V78.8281H189.806V77.3125ZM186.29 76.375H199.306V74.7812H197.423C197.767 73.1641 197.767 72.0156 197.759 70.9375V69.7969H187.884V71.3906H195.774C195.759 72.3438 195.72 73.4062 195.446 74.7812H186.29V76.375ZM189.806 81.6719V80.3438H195.728V81.6719H189.806ZM208.255 72.5469H203.349V71.2812H208.114V69.7969H201.286V74.0625H203.708V75.0469C202.435 75.0781 201.185 75.0781 200.036 75.0781L200.271 76.5938C202.974 76.6016 206.224 76.5312 209.224 76.0781L209.13 74.75C208.036 74.8594 206.896 74.9297 205.739 74.9844V74.0625H208.255V72.5469ZM202.192 78.75H209.958V79.5156H202.239V83.3438H212.286V81.7656H204.192V80.9688H211.927V77.2031H202.192V78.75ZM209.942 76.7031H211.927V69.2344H209.942V76.7031ZM229.482 69.2188H227.576V83.4375H229.482V69.2188ZM217.279 75.375C217.279 78.5703 218.49 80.5469 220.372 80.5469C221.568 80.5469 222.497 79.7578 223.029 78.375H224.701V82.7812H226.576V69.4219H224.701V72.375H223.021C222.497 71.0078 221.56 70.2266 220.372 70.2344C218.49 70.2266 217.279 72.1953 217.279 75.375ZM219.091 75.375C219.076 73.1953 219.537 72.1094 220.372 72.1094C221.193 72.1094 221.693 73.1953 221.701 75.375C221.693 77.5625 221.193 78.6406 220.372 78.625C219.537 78.6406 219.076 77.5625 219.091 75.375ZM223.419 73.9688H224.701V76.7656H223.427C223.482 76.3359 223.513 75.8672 223.513 75.375C223.513 74.875 223.482 74.4062 223.419 73.9688ZM242.806 69.2188H240.822V72.6875H238.603V74.2969H240.822V77.6562H242.806V69.2188ZM230.728 76.0938L231.759 77.6719C233.447 77.0938 234.588 75.9297 235.213 74.4844C235.83 75.7578 236.916 76.7891 238.478 77.2969L239.463 75.7344C237.252 75 236.236 73.3281 236.197 71.6719H239.025V70.0781H231.306V71.6719H234.166C234.119 73.4531 233.056 75.3125 230.728 76.0938ZM233.056 80.7188C233.056 82.4453 234.916 83.4531 237.947 83.4531C240.986 83.4531 242.845 82.4453 242.853 80.7188C242.845 78.9922 240.986 77.9766 237.947 77.9688C234.916 77.9766 233.056 78.9922 233.056 80.7188ZM235.041 80.7188C235.041 79.8984 236.064 79.4922 237.947 79.5C239.838 79.4922 240.861 79.8984 240.869 80.7188C240.861 81.5312 239.838 81.9375 237.947 81.9375C236.064 81.9375 235.041 81.5312 235.041 80.7188ZM256.396 69.2188H254.381V83.4688H256.396V69.2188ZM244.912 75.2812C244.904 78.4062 246.49 80.3594 248.678 80.3594C250.818 80.3594 252.412 78.4062 252.412 75.2812C252.412 72.1797 250.818 70.2188 248.678 70.2188C246.49 70.2188 244.904 72.1797 244.912 75.2812ZM246.834 75.2812C246.826 73.1719 247.568 72.0156 248.678 72.0156C249.756 72.0156 250.482 73.1719 250.49 75.2812C250.482 77.3984 249.756 78.5547 248.678 78.5469C247.568 78.5547 246.826 77.3984 246.834 75.2812ZM261.986 70.2188C259.807 70.2188 258.228 72.1797 258.236 75.2812C258.228 78.4062 259.807 80.3594 261.986 80.3594C264.158 80.3594 265.728 78.4062 265.736 75.2812C265.728 72.1797 264.158 70.2188 261.986 70.2188ZM260.158 75.2812C260.158 73.1719 260.9 72.0156 261.986 72.0156C263.096 72.0156 263.822 73.1719 263.83 75.2812C263.822 77.3984 263.096 78.5547 261.986 78.5469C260.9 78.5547 260.158 77.3984 260.158 75.2812ZM267.377 83.4375H269.377V78.3438H271.393V76.7188H269.377V74.1875H271.393V72.5156H269.377V69.2188H267.377V83.4375ZM275.061 70.6875H272.654L272.857 78.6094H274.857L275.061 70.6875ZM272.561 80.8281C272.545 81.5547 273.139 82.1406 273.873 82.1406C274.568 82.1406 275.17 81.5547 275.17 80.8281C275.17 80.1094 274.568 79.5234 273.873 79.5312C273.139 79.5234 272.545 80.1094 272.561 80.8281Z" fill="black"/>
</svg>
