<svg width="327" height="130" viewBox="0 0 327 130" fill="none" xmlns="http://www.w3.org/2000/svg">
<rect width="327" height="130" rx="16" fill="#F6F5F2"/>
<path d="M37.6778 28.3298C34.7733 26.3807 30.8027 27.7281 29.6904 31.0451L28.0527 35.9255C27.512 37.53 26.24 38.7849 24.6229 39.294L19.71 40.8419C16.3677 41.8962 14.9515 45.8355 16.857 48.7719L19.6585 53.0918C20.5803 54.5163 20.7657 56.2905 20.158 57.8744L18.3092 62.6777C17.0527 65.9433 19.2516 69.5072 22.7381 69.8466L27.8673 70.3506C29.5565 70.5151 31.0602 71.482 31.9203 72.9425L34.5261 77.3806C36.2976 80.3993 40.4587 80.9033 42.8997 78.3937L46.4943 74.7064C47.6788 73.4927 49.3731 72.9168 51.0519 73.1585L56.1554 73.8939C59.6213 74.3927 62.6134 71.4562 62.1705 67.9849L61.5216 62.8783C61.3104 61.1966 61.913 59.515 63.1489 58.3527L66.9032 54.8248C69.4524 52.4284 69.0198 48.2628 66.0277 46.4474L61.6246 43.7681C60.1775 42.8887 59.2351 41.3665 59.096 39.6745L58.6737 34.5422C58.3905 31.0554 54.8577 28.7978 51.5669 30.0012L46.7261 31.7703C45.1348 32.3514 43.3581 32.1354 41.947 31.1943L37.6675 28.3247L37.6778 28.3298Z" fill="#FFB700"/>
<path d="M41.0304 71.9655C30.9421 71.9655 22.7639 63.7987 22.7639 53.7244C22.7639 43.6502 30.9421 35.4834 41.0304 35.4834C51.1187 35.4834 59.2969 43.6502 59.2969 53.7244C59.2969 63.7987 51.1187 71.9655 41.0304 71.9655Z" fill="#FFEB74"/>
<path opacity="0.2" d="M51.5828 62.7105C49.4581 62.7105 47.7358 60.9906 47.7358 58.8689C47.7358 56.7473 49.4581 55.0273 51.5828 55.0273C53.7074 55.0273 55.4297 56.7473 55.4297 58.8689C55.4297 60.9906 53.7074 62.7105 51.5828 62.7105Z" fill="#FFB700"/>
<path opacity="0.2" d="M33.1824 62.7105C31.0578 62.7105 29.3354 60.9906 29.3354 58.8689C29.3354 56.7473 31.0578 55.0273 33.1824 55.0273C35.307 55.0273 37.0293 56.7473 37.0293 58.8689C37.0293 60.9906 35.307 62.7105 33.1824 62.7105Z" fill="#FFB700"/>
<path d="M44.1282 59.3583C43.7214 59.7646 43.1291 60.0372 42.4596 60.0834C41.4606 60.1503 40.5697 59.6875 40.168 58.9726" stroke="#251700" stroke-width="1.05055" stroke-linecap="round"/>
<path d="M36.4735 46.8331C34.5475 46.8691 33.945 47.1211 33.9965 47.8925C34.048 48.6639 34.6247 49.1422 36.7825 49.1062C38.9455 49.0702 39.8982 48.2113 39.584 47.2599C39.0845 46.2931 38.3996 46.7971 36.4735 46.8331Z" fill="#FFB700"/>
<path d="M44.8254 47.2599C44.5113 48.2113 45.4692 49.0702 47.6269 49.1062C49.7899 49.1422 50.3615 48.6639 50.413 47.8925C50.4645 47.1211 49.862 46.8691 47.9359 46.8331C46.0099 46.7971 45.3198 46.2931 44.8254 47.2599Z" fill="#FFB700"/>
<path d="M47.7607 59.3012C45.1185 59.3012 42.9765 57.1622 42.9765 54.5236C42.9765 51.8851 45.1185 49.7461 47.7607 49.7461C50.403 49.7461 52.5449 51.8851 52.5449 54.5236C52.5449 57.1622 50.403 59.3012 47.7607 59.3012Z" fill="white"/>
<path d="M46.5311 58.2941C44.5743 58.2941 42.988 56.71 42.988 54.7559C42.988 52.8019 44.5743 51.2178 46.5311 51.2178C48.4879 51.2178 50.0742 52.8019 50.0742 54.7559C50.0742 56.71 48.4879 58.2941 46.5311 58.2941Z" fill="#3C2400"/>
<path d="M49.3415 57.4762C48.7556 57.4762 48.2806 57.0019 48.2806 56.4168C48.2806 55.8317 48.7556 55.3574 49.3415 55.3574C49.9274 55.3574 50.4023 55.8317 50.4023 56.4168C50.4023 57.0019 49.9274 57.4762 49.3415 57.4762Z" fill="white"/>
<path d="M47.7609 58.9774C45.2979 58.9774 43.3012 56.9835 43.3012 54.5239C43.3012 52.0642 45.2979 50.0703 47.7609 50.0703C50.224 50.0703 52.2207 52.0642 52.2207 54.5239C52.2207 56.9835 50.224 58.9774 47.7609 58.9774Z" stroke="#251700" stroke-width="1.05055"/>
<path d="M36.3349 59.3012C33.6927 59.3012 31.5507 57.1622 31.5507 54.5236C31.5507 51.8851 33.6927 49.7461 36.3349 49.7461C38.9772 49.7461 41.1191 51.8851 41.1191 54.5236C41.1191 57.1622 38.9772 59.3012 36.3349 59.3012Z" fill="white"/>
<path d="M35.1053 58.2941C33.1485 58.2941 31.5623 56.71 31.5623 54.7559C31.5623 52.8019 33.1485 51.2178 35.1053 51.2178C37.0621 51.2178 38.6484 52.8019 38.6484 54.7559C38.6484 56.71 37.0621 58.2941 35.1053 58.2941Z" fill="#3C2400"/>
<path d="M37.9157 57.4762C37.3298 57.4762 36.8548 57.0019 36.8548 56.4168C36.8548 55.8317 37.3298 55.3574 37.9157 55.3574C38.5016 55.3574 38.9766 55.8317 38.9766 56.4168C38.9766 57.0019 38.5016 57.4762 37.9157 57.4762Z" fill="white"/>
<path d="M36.3352 58.9774C33.8721 58.9774 31.8754 56.9835 31.8754 54.5239C31.8754 52.0642 33.8721 50.0703 36.3352 50.0703C38.7982 50.0703 40.7949 52.0642 40.7949 54.5239C40.7949 56.9835 38.7982 58.9774 36.3352 58.9774Z" stroke="#251700" stroke-width="1.05055"/>
<path d="M51.2128 40.0747C51.1758 39.4959 50.677 39.058 50.0356 39.0414Lnan nanL50.0356 39.0414C48.3829 38.9984 46.7292 39.5417 45.424 40.5565Lnan nanL45.424 40.5565C44.9175 40.9504 44.7756 41.5988 45.089 42.0867L45.3049 42.4227C45.7385 43.0977 46.5565 43.4832 47.4482 43.433Lnan nanL47.4482 43.433C48.3929 43.3797 49.3197 43.0753 50.1119 42.5578Lnan nanL50.1119 42.5578C50.8596 42.0694 51.2895 41.2738 51.2383 40.4732L51.2128 40.0747Z" fill="#595857"/>
<path d="M51.2128 40.0747C51.1758 39.4959 50.677 39.058 50.0356 39.0414Lnan nanL50.0356 39.0414C48.3829 38.9984 46.7292 39.5417 45.424 40.5565Lnan nanL45.424 40.5565C44.9175 40.9504 44.7756 41.5988 45.089 42.0867L45.3049 42.4227C45.7385 43.0977 46.5565 43.4832 47.4482 43.433Lnan nanL47.4482 43.433C48.3929 43.3797 49.3197 43.0753 50.1119 42.5578Lnan nanL50.1119 42.5578C50.8596 42.0694 51.2895 41.2738 51.2383 40.4732L51.2128 40.0747Z" fill="#3C3C3C"/>
<path d="M51.2128 40.0747L51.2383 40.4732C51.2629 40.8576 51.1766 41.2408 50.9975 41.5894L47.5636 39.4142C48.3574 39.1488 49.1966 39.0195 50.0356 39.0414C50.677 39.058 51.1758 39.4959 51.2128 40.0747Z" fill="#595857"/>
<path d="M36.8354 44.7949C36.5219 44.3069 36.6639 43.6585 37.1704 43.2647Lnan nanL37.1704 43.2647C38.4755 42.2499 40.1292 41.7065 41.782 41.7495Lnan nanL41.782 41.7495C42.4233 41.7662 42.9222 42.2041 42.9592 42.7829L42.9847 43.1814C43.0359 43.9819 42.606 44.7775 41.8582 45.266Lnan nanL41.8582 45.266C41.066 45.7834 40.1393 46.0879 39.1946 46.1411Lnan nanL39.1946 46.1411C38.3028 46.1914 37.4848 45.8058 37.0512 45.1309L36.8354 44.7949Z" fill="#3C3C3C"/>
<path d="M42.9531 42.7905L42.9786 43.189C43.0032 43.5734 42.9168 43.9566 42.7377 44.3052L39.3038 42.13C40.0976 41.8646 40.9369 41.7354 41.7758 41.7572C42.4172 41.7739 42.9161 42.2117 42.9531 42.7905Z" fill="#595857"/>
<path fill-rule="evenodd" clip-rule="evenodd" d="M43.6534 43.1027L43.6279 42.7042C43.6222 42.6149 43.6092 42.5279 43.5895 42.4435C43.6059 42.2146 43.6761 42 43.8773 41.9339C44.043 41.8794 44.2032 41.9566 44.3359 42.0836C44.3762 42.1999 44.4308 42.3129 44.5001 42.4208L44.7159 42.7568C45.2669 43.6145 46.3064 44.1045 47.4396 44.0406C48.517 43.9799 49.5738 43.6327 50.4773 43.0426C51.4275 42.4219 51.9738 41.4109 51.9088 40.3935L51.8833 39.995C51.8656 39.718 51.7779 39.4623 51.6356 39.2414C51.652 39.2314 51.6682 39.2212 51.6843 39.2107C51.9313 39.0488 52.0732 38.7855 52.0559 38.5208L52.0546 38.501C52.0384 38.2536 51.7991 38.0816 51.5244 38.12L48.9147 38.4843C48.8617 38.4917 48.8091 38.5014 48.7571 38.5134C47.3985 38.7126 46.0933 39.2618 45.0067 40.1067C44.9226 40.172 44.8452 40.2421 44.7746 40.3159C44.3746 40.6 43.9827 40.8538 43.5673 40.9903C43.1517 41.1268 42.7847 41.1223 42.3363 41.1168C42.0324 41.113 41.6911 41.1088 41.2721 41.1478C40.0907 41.2044 38.9259 41.5277 37.883 42.0831C37.834 42.1042 37.7859 42.1276 37.7388 42.1531L35.9169 43.1394C35.6163 43.2063 34.6981 43.5244 33.782 43.8419C33.2487 44.0267 32.7162 44.2112 32.3065 44.3458L32.3069 44.3471C31.8584 44.4947 31.2842 44.8624 31.6551 45.3864C31.9706 45.8321 32.8019 45.7653 33.2494 45.1462L35.9783 44.378C35.9818 44.3777 35.9853 44.3774 35.9888 44.3771C35.9916 44.3769 35.9944 44.3767 35.9972 44.3764C36.0136 44.6387 36.0947 44.8965 36.2447 45.13L36.4606 45.466C37.0116 46.3237 38.0511 46.8137 39.1842 46.7498C40.2616 46.6891 41.3185 46.3419 42.2219 45.7518C43.1721 45.1311 43.7185 44.1201 43.6534 43.1027ZM36.6679 44.1815C36.6834 43.8442 36.8569 43.507 37.1675 43.2655C38.4727 42.2507 40.1264 41.7073 41.7791 41.7503C42.4205 41.767 42.9193 42.2049 42.9563 42.7836L42.9818 43.1822C43.033 43.9827 42.6031 44.7783 41.8554 45.2667C41.0632 45.7842 40.1364 46.0887 39.1917 46.1419C38.3 46.1922 37.482 45.8066 37.0484 45.1317L36.8325 44.7957C36.7113 44.6069 36.6582 44.3942 36.6679 44.1815ZM48.0102 39.2799C47.4077 39.4394 46.8258 39.6759 46.2832 39.9831C45.9833 40.1529 45.6955 40.3443 45.4229 40.5563C44.9488 40.9249 44.7941 41.5166 45.0333 41.991C45.0476 42.0193 45.0633 42.0473 45.0805 42.0747C45.0829 42.0787 45.0854 42.0826 45.0879 42.0865L45.3037 42.4224C45.6831 43.013 46.3568 43.382 47.1167 43.4314C47.2253 43.4385 47.3356 43.439 47.4471 43.4327C48.2737 43.3861 49.0866 43.1472 49.8076 42.7415C49.9106 42.6836 50.0117 42.6222 50.1107 42.5575C50.8585 42.0691 51.2884 41.2735 51.2372 40.473L51.2117 40.0744C51.1974 39.8506 51.114 39.6478 50.98 39.4823C50.7675 39.2199 50.4278 39.0513 50.0345 39.0411C49.3517 39.0233 48.6687 39.1056 48.0102 39.2799Z" fill="black"/>
<path d="M82 30H300C308.837 30 316 37.1634 316 46V82C316 90.8366 308.837 98 300 98H98C89.1634 98 82 90.8366 82 82V30Z" fill="white"/>
<path d="M114.328 55.625H112.328V45.2344H114.328V55.625ZM102.547 52.5781C103.302 52.3594 103.932 52.0417 104.438 51.625C104.948 51.2083 105.326 50.7344 105.57 50.2031C105.82 49.6719 105.943 49.1146 105.938 48.5312V48.4219H103.031V46.875H105.938V45.2969H107.969V46.875H110.859V48.4219H107.953V48.5312C107.948 49.0729 108.068 49.5964 108.312 50.1016C108.562 50.6016 108.943 51.0469 109.453 51.4375C109.969 51.8281 110.604 52.125 111.359 52.3281L110.406 53.8906C109.604 53.6719 108.917 53.3385 108.344 52.8906C107.771 52.4427 107.318 51.9062 106.984 51.2812C106.651 51.9635 106.193 52.5521 105.609 53.0469C105.026 53.5365 104.323 53.8958 103.5 54.125L102.547 52.5781ZM104.797 54.7031H106.812V57.5938H114.703V59.1875H104.797V54.7031ZM127.543 47.3281C127.538 48.2604 127.514 49.0677 127.473 49.75C127.431 50.4323 127.332 51.2135 127.176 52.0938H129.059V53.7031H123.512V59.4531H121.512V53.7031H116.09V52.0938H125.153C125.319 51.276 125.426 50.5286 125.473 49.8516C125.525 49.1693 125.554 48.4323 125.559 47.6406H117.574V46.0469H127.543V47.3281ZM134.368 46.1719C135.112 46.1719 135.784 46.3203 136.383 46.6172C136.982 46.9141 137.451 47.3281 137.789 47.8594C138.133 48.3854 138.305 48.9844 138.305 49.6562C138.305 50.3281 138.133 50.9297 137.789 51.4609C137.451 51.9922 136.982 52.4089 136.383 52.7109C135.784 53.0078 135.112 53.1562 134.368 53.1562C133.628 53.1562 132.956 53.0078 132.352 52.7109C131.748 52.4089 131.274 51.9922 130.93 51.4609C130.586 50.9297 130.414 50.3281 130.414 49.6562C130.414 48.9896 130.586 48.3906 130.93 47.8594C131.274 47.3281 131.748 46.9141 132.352 46.6172C132.956 46.3203 133.628 46.1719 134.368 46.1719ZM130.407 54.9375C131.969 54.9375 133.461 54.9062 134.883 54.8438C136.31 54.7812 137.654 54.6615 138.914 54.4844L139.071 55.9219C137.675 56.1927 136.256 56.3672 134.813 56.4453C133.375 56.5234 131.789 56.5625 130.055 56.5625L129.821 54.9375H130.407ZM132.399 49.6562C132.399 50.0208 132.482 50.3385 132.649 50.6094C132.821 50.875 133.055 51.0781 133.352 51.2188C133.654 51.3594 133.993 51.4271 134.368 51.4219C134.748 51.4271 135.089 51.3594 135.391 51.2188C135.693 51.0781 135.93 50.875 136.102 50.6094C136.279 50.3385 136.368 50.0208 136.368 49.6562C136.368 49.2969 136.279 48.9844 136.102 48.7188C135.93 48.4479 135.693 48.2422 135.391 48.1016C135.089 47.9609 134.748 47.8906 134.368 47.8906C133.993 47.8906 133.654 47.9609 133.352 48.1016C133.055 48.2422 132.821 48.4479 132.649 48.7188C132.482 48.9844 132.399 49.2969 132.399 49.6562ZM139.727 45.2188H141.711V59.4688H139.727V45.2188ZM158.173 50.6719H160.188V52.3125H158.173V59.4062H156.173V45.2188H158.173V50.6719ZM146.798 55.4219C148.49 54.5729 149.792 53.5677 150.704 52.4062C151.615 51.2448 152.165 49.875 152.352 48.2969H147.61V46.6719H154.376C154.365 48.9375 153.855 50.9375 152.844 52.6719C151.839 54.4062 150.199 55.8333 147.923 56.9531L146.798 55.4219ZM172.528 52.8594H170.528V45.2188H172.528V52.8594ZM160.841 49.1875C160.841 48.5312 161.01 47.9479 161.348 47.4375C161.687 46.9219 162.151 46.5208 162.739 46.2344C163.333 45.9479 163.997 45.8073 164.731 45.8125C165.46 45.8073 166.119 45.9479 166.708 46.2344C167.302 46.5208 167.768 46.9219 168.106 47.4375C168.45 47.9479 168.622 48.5312 168.622 49.1875C168.622 49.8229 168.45 50.3932 168.106 50.8984C167.768 51.4036 167.302 51.7995 166.708 52.0859C166.119 52.3724 165.46 52.5156 164.731 52.5156C163.997 52.5156 163.333 52.3724 162.739 52.0859C162.151 51.7995 161.687 51.4036 161.348 50.8984C161.01 50.3932 160.841 49.8229 160.841 49.1875ZM162.794 49.1875C162.789 49.5312 162.867 49.8307 163.028 50.0859C163.195 50.3411 163.424 50.5365 163.716 50.6719C164.013 50.8073 164.351 50.875 164.731 50.875C165.101 50.875 165.429 50.8073 165.716 50.6719C166.007 50.5365 166.236 50.3411 166.403 50.0859C166.57 49.8307 166.653 49.5312 166.653 49.1875C166.653 48.8385 166.57 48.5339 166.403 48.2734C166.236 48.013 166.007 47.8151 165.716 47.6797C165.429 47.5391 165.101 47.4688 164.731 47.4688C164.351 47.4688 164.013 47.5391 163.716 47.6797C163.424 47.8151 163.195 48.013 163.028 48.2734C162.867 48.5339 162.789 48.8385 162.794 49.1875ZM163.013 53.4844H164.981V54.8125H170.544V53.4844H172.528V59.2812H163.013V53.4844ZM170.544 57.6719V56.3594H164.981V57.6719H170.544ZM186.196 59.4688H184.181V45.2188H186.196V59.4688ZM174.712 51.2812C174.712 50.2656 174.871 49.375 175.188 48.6094C175.511 47.8438 175.957 47.2552 176.524 46.8438C177.097 46.4271 177.748 46.2188 178.478 46.2188C179.191 46.2188 179.829 46.4271 180.392 46.8438C180.959 47.2552 181.405 47.8438 181.728 48.6094C182.05 49.375 182.212 50.2656 182.212 51.2812C182.212 52.3021 182.05 53.1979 181.728 53.9688C181.405 54.7344 180.959 55.3255 180.392 55.7422C179.829 56.1536 179.191 56.3594 178.478 56.3594C177.748 56.3594 177.097 56.1536 176.524 55.7422C175.957 55.3255 175.511 54.7344 175.188 53.9688C174.871 53.1979 174.712 52.3021 174.712 51.2812ZM176.634 51.2812C176.634 51.974 176.709 52.5677 176.86 53.0625C177.011 53.5521 177.225 53.9245 177.501 54.1797C177.782 54.4297 178.108 54.5521 178.478 54.5469C178.837 54.5521 179.152 54.4297 179.423 54.1797C179.699 53.9245 179.912 53.5521 180.063 53.0625C180.214 52.5677 180.29 51.974 180.29 51.2812C180.29 50.5885 180.214 49.9974 180.063 49.5078C179.912 49.0182 179.699 48.6484 179.423 48.3984C179.152 48.1432 178.837 48.0156 178.478 48.0156C178.108 48.0156 177.782 48.1432 177.501 48.3984C177.225 48.6484 177.011 49.0182 176.86 49.5078C176.709 49.9974 176.634 50.5885 176.634 51.2812ZM195.767 45.7969C196.454 45.7969 197.069 45.9193 197.611 46.1641C198.152 46.4089 198.577 46.75 198.884 47.1875C199.191 47.625 199.345 48.125 199.345 48.6875C199.345 49.1458 199.238 49.5651 199.025 49.9453C198.811 50.3255 198.512 50.6484 198.126 50.9141C197.746 51.1745 197.303 51.3594 196.798 51.4688V52.5078C198.017 52.4297 199.105 52.3229 200.064 52.1875L200.22 53.6406C198.027 54.026 195.283 54.2188 191.986 54.2188H191.658L191.454 52.6406C192.673 52.6406 193.788 52.6276 194.798 52.6016V51.4844C194.277 51.3802 193.819 51.1979 193.423 50.9375C193.027 50.6719 192.723 50.3464 192.509 49.9609C192.296 49.5755 192.189 49.151 192.189 48.6875C192.189 48.125 192.34 47.625 192.642 47.1875C192.944 46.75 193.366 46.4089 193.908 46.1641C194.454 45.9193 195.074 45.7969 195.767 45.7969ZM193.329 55.125H195.329V57.5781H203.345V59.1719H193.329V55.125ZM194.048 48.6875C194.043 49.1094 194.199 49.4427 194.517 49.6875C194.835 49.9323 195.251 50.0573 195.767 50.0625C196.288 50.0573 196.702 49.9349 197.009 49.6953C197.316 49.4505 197.47 49.1146 197.47 48.6875C197.47 48.25 197.316 47.9115 197.009 47.6719C196.702 47.4323 196.288 47.3073 195.767 47.2969C195.246 47.3073 194.827 47.4349 194.509 47.6797C194.197 47.9193 194.043 48.2552 194.048 48.6875ZM200.861 45.2344H202.861V49.7031H204.673V51.3594H202.861V56.0781H200.861V45.2344ZM218.169 57.8594H205.154V56.2188H208.482V54.0469H206.654V49.2656H214.701V47.7344H206.638V46.1406H216.669V50.8594H208.654V52.4375H216.997V54.0469H214.982V56.2188H218.169V57.8594ZM213.029 56.2188V54.0469H210.419V56.2188H213.029ZM227.291 52.5938H224.525V54.9297C225.77 54.8776 226.921 54.7969 227.978 54.6875L228.134 56.1406C226.754 56.3542 225.351 56.4922 223.923 56.5547C222.502 56.612 220.9 56.6406 219.119 56.6406L218.884 55.0156L220.048 55.0234C220.944 55.0234 221.77 55.013 222.525 54.9922V52.5938H219.822V46.4844H227.213V48.0625H221.806V51H227.291V52.5938ZM228.791 45.2188H230.775V59.4688H228.791V45.2188ZM239.834 47.4531H242.49V45.2344H244.474V55.5781H242.49V52.0938H239.834V53.2969H233.084V46.375H239.834V47.4531ZM235.006 54.5938H237.021V57.5938H244.771V59.1875H235.006V54.5938ZM237.881 51.75V47.9531H235.068V51.75H237.881ZM242.49 50.5156V49.0625H239.834V50.5156H242.49ZM115.391 79.3594H109.875V83.4531H107.906V79.3594H102.422V77.7344H115.391V79.3594ZM103.078 75.4062C104.016 75.3021 104.831 75.0964 105.523 74.7891C106.221 74.4818 106.766 74.1224 107.156 73.7109C107.552 73.2943 107.792 72.8646 107.875 72.4219H103.594V70.8594H107.906V69.2344H109.875V70.8594H114.203V72.4219H109.938C110.016 72.8542 110.247 73.2812 110.633 73.7031C111.023 74.1198 111.565 74.4818 112.258 74.7891C112.951 75.0964 113.766 75.3021 114.703 75.4062L113.984 76.9688C112.812 76.8385 111.792 76.5469 110.922 76.0938C110.057 75.6406 109.385 75.0807 108.906 74.4141C108.427 75.0859 107.75 75.6458 106.875 76.0938C106.005 76.5417 104.979 76.8333 103.797 76.9688L103.078 75.4062ZM121.324 72.5625C121.33 73.1146 121.455 73.6484 121.699 74.1641C121.944 74.6745 122.317 75.1354 122.817 75.5469C123.317 75.9583 123.939 76.276 124.684 76.5L123.731 78.0469C122.955 77.8229 122.283 77.4818 121.715 77.0234C121.147 76.5599 120.699 76.0104 120.371 75.375C120.043 76.0625 119.593 76.6562 119.02 77.1562C118.452 77.6562 117.767 78.0312 116.965 78.2812L115.996 76.7188C116.741 76.4948 117.363 76.1693 117.863 75.7422C118.363 75.3151 118.733 74.8281 118.973 74.2812C119.218 73.7344 119.34 73.1615 119.34 72.5625V72.4531H116.481V70.8906H119.34V69.3125H121.356V70.8906H124.199V72.4531H121.324V72.5625ZM118.637 78.875H120.637V81.5938H128.418V83.1875H118.637V78.875ZM123.731 73.375H126.09V69.2344H128.074V79.7812H126.09V74.9844H123.731V73.375ZM134.993 72.4375C134.987 73.3073 135.11 74.151 135.36 74.9688C135.61 75.7812 135.987 76.5104 136.493 77.1562C136.998 77.8021 137.618 78.3021 138.352 78.6562L137.149 80.25C136.409 79.8802 135.776 79.3646 135.25 78.7031C134.724 78.0365 134.31 77.2604 134.008 76.375C133.685 77.3281 133.245 78.1615 132.688 78.875C132.131 79.5833 131.461 80.1302 130.68 80.5156L129.446 78.9062C130.222 78.5521 130.875 78.0391 131.407 77.3672C131.938 76.6901 132.334 75.9271 132.594 75.0781C132.86 74.224 132.993 73.3438 132.993 72.4375V70.3125H134.993V72.4375ZM138.977 69.2188H140.977V74.7031H143.071V76.3906H140.977V83.4375H138.977V69.2188ZM154.645 74.6719H156.661V76.3125H154.645V83.4062H152.645V69.2188H154.645V74.6719ZM143.27 79.4219C144.963 78.5729 146.265 77.5677 147.176 76.4062C148.088 75.2448 148.637 73.875 148.825 72.2969H144.083V70.6719H150.848C150.838 72.9375 150.327 74.9375 149.317 76.6719C148.312 78.4062 146.671 79.8333 144.395 80.9531L143.27 79.4219ZM165.872 73.0938C165.867 73.8385 165.997 74.5859 166.263 75.3359C166.528 76.0859 166.921 76.7708 167.442 77.3906C167.968 78.0104 168.606 78.4948 169.356 78.8438L168.247 80.4062C167.481 80.0521 166.815 79.5391 166.247 78.8672C165.679 78.1901 165.229 77.4089 164.895 76.5234C164.567 77.4922 164.109 78.349 163.52 79.0938C162.937 79.8333 162.247 80.3906 161.45 80.7656L160.294 79.1875C161.054 78.8333 161.703 78.3307 162.239 77.6797C162.776 77.0286 163.179 76.3047 163.45 75.5078C163.726 74.7057 163.867 73.901 163.872 73.0938V72.2188H160.856V70.5938H168.731V72.2188H165.872V73.0938ZM169.841 69.2188H171.841V74.6406H173.934V76.3125H171.841V83.4375H169.841V69.2188ZM187.29 77.5H174.29V75.9375H179.821V74.7188H175.868V69.8438H185.728V71.3906H177.853V73.1562H185.806V74.7188H181.774V75.9375H187.29V77.5ZM175.774 80.8438C175.774 80.2865 175.972 79.8125 176.368 79.4219C176.764 79.026 177.334 78.7266 178.079 78.5234C178.829 78.3203 179.722 78.2188 180.759 78.2188C181.785 78.2188 182.668 78.3203 183.407 78.5234C184.147 78.7266 184.714 79.026 185.11 79.4219C185.506 79.8125 185.707 80.2865 185.712 80.8438C185.707 81.3958 185.506 81.8672 185.11 82.2578C184.714 82.6484 184.147 82.9453 183.407 83.1484C182.668 83.3516 181.785 83.4531 180.759 83.4531C179.722 83.4531 178.832 83.3516 178.087 83.1484C177.342 82.9453 176.769 82.6484 176.368 82.2578C175.972 81.8672 175.774 81.3958 175.774 80.8438ZM177.806 80.8438C177.8 81.2135 178.043 81.4896 178.532 81.6719C179.027 81.849 179.769 81.9375 180.759 81.9375C182.722 81.9375 183.707 81.5729 183.712 80.8438C183.707 80.4792 183.454 80.2031 182.954 80.0156C182.459 79.8281 181.728 79.7344 180.759 79.7344C179.774 79.7344 179.035 79.8281 178.54 80.0156C178.045 80.1979 177.8 80.474 177.806 80.8438ZM194.442 69.9375C195.442 69.9375 196.349 70.1094 197.161 70.4531C197.974 70.7969 198.617 71.2786 199.091 71.8984C199.565 72.5182 199.802 73.2292 199.802 74.0312C199.802 74.8385 199.565 75.5547 199.091 76.1797C198.617 76.7995 197.974 77.2786 197.161 77.6172C196.349 77.9557 195.442 78.125 194.442 78.125C193.442 78.125 192.536 77.9557 191.724 77.6172C190.911 77.2786 190.271 76.7995 189.802 76.1797C189.333 75.5599 189.099 74.8438 189.099 74.0312C189.099 73.2292 189.333 72.5182 189.802 71.8984C190.271 71.2786 190.911 70.7969 191.724 70.4531C192.536 70.1094 193.442 69.9375 194.442 69.9375ZM187.958 80.0938H200.974V81.7031H187.958V80.0938ZM191.036 74.0312C191.036 74.5365 191.179 74.9766 191.466 75.3516C191.758 75.7214 192.161 76.0052 192.677 76.2031C193.192 76.401 193.781 76.5 194.442 76.5C195.099 76.5 195.682 76.401 196.192 76.2031C196.703 76.0052 197.104 75.7214 197.396 75.3516C197.687 74.9766 197.833 74.5365 197.833 74.0312C197.833 73.5312 197.687 73.0938 197.396 72.7188C197.104 72.3438 196.7 72.0573 196.185 71.8594C195.674 71.6562 195.094 71.5573 194.442 71.5625C193.786 71.5573 193.198 71.6562 192.677 71.8594C192.161 72.0573 191.758 72.3438 191.466 72.7188C191.179 73.0938 191.036 73.5312 191.036 74.0312ZM214.642 81.8594H201.626V80.2188H207.111V78.0781H203.126V73.2969H211.173V71.7344H203.111V70.1406H213.142V74.8594H205.126V76.4531H213.47V78.0781H209.095V80.2188H214.642V81.8594ZM231.838 81.7812H218.822V80.1562H224.306V77.5312H220.197V70.125H222.197V72.3281H228.4V70.125H230.384V77.5312H226.291V80.1562H231.838V81.7812ZM228.4 75.9375V73.9219H222.197V75.9375H228.4ZM236.412 70.2188C237.053 70.2188 237.631 70.3854 238.146 70.7188C238.662 71.0521 239.081 71.526 239.404 72.1406H242.521V69.2188H244.49V83.4688H242.521V78.1406H239.553C239.235 78.8438 238.803 79.3906 238.256 79.7812C237.714 80.1667 237.099 80.3594 236.412 80.3594C235.693 80.3594 235.053 80.1536 234.49 79.7422C233.933 79.3255 233.498 78.7344 233.185 77.9688C232.873 77.1979 232.719 76.3021 232.724 75.2812C232.719 74.2656 232.873 73.375 233.185 72.6094C233.498 71.8438 233.933 71.2552 234.49 70.8438C235.053 70.4271 235.693 70.2188 236.412 70.2188ZM234.631 75.2812C234.631 75.974 234.704 76.5677 234.849 77.0625C234.995 77.5521 235.204 77.9245 235.474 78.1797C235.745 78.4297 236.058 78.5521 236.412 78.5469C236.771 78.5521 237.084 78.4297 237.349 78.1797C237.62 77.9245 237.829 77.5521 237.974 77.0625C238.12 76.5677 238.193 75.974 238.193 75.2812C238.193 74.5885 238.12 73.9974 237.974 73.5078C237.829 73.0182 237.62 72.6484 237.349 72.3984C237.084 72.1432 236.771 72.0156 236.412 72.0156C236.058 72.0156 235.745 72.1432 235.474 72.3984C235.204 72.6484 234.995 73.0208 234.849 73.5156C234.704 74.0052 234.631 74.5938 234.631 75.2812ZM239.959 73.75C240.053 74.2188 240.099 74.7292 240.099 75.2812C240.099 75.724 240.068 76.1458 240.006 76.5469H242.521V73.75H239.959ZM258.049 76.5156H256.064V69.2188H258.049V76.5156ZM246.221 75.0938C246.934 74.8958 247.538 74.612 248.033 74.2422C248.533 73.8724 248.916 73.4505 249.182 72.9766C249.452 72.4974 249.611 71.9948 249.658 71.4688H246.752V69.875H254.564V71.4688H251.721C251.768 71.9531 251.921 72.4193 252.182 72.8672C252.447 73.3099 252.825 73.7057 253.314 74.0547C253.809 74.3984 254.408 74.6615 255.111 74.8438L254.158 76.375C253.356 76.1562 252.666 75.8203 252.088 75.3672C251.51 74.9141 251.057 74.375 250.728 73.75C250.395 74.4479 249.924 75.0495 249.314 75.5547C248.71 76.0547 247.981 76.4271 247.127 76.6719L246.221 75.0938ZM248.518 77.0781H258.064V80.875H250.502V81.8125H258.455V83.3438H248.549V79.4531H256.08V78.5938H248.518V77.0781ZM275.338 83.4375H273.354V76.3125H270.526V74.6875H273.354V69.2188H275.338V83.4375ZM263.213 79.4062C264.401 78.8229 265.372 78.1797 266.127 77.4766C266.882 76.7682 267.458 75.9896 267.854 75.1406C268.25 74.2865 268.497 73.3281 268.596 72.2656H263.885V70.7031H270.604C270.599 72.224 270.403 73.599 270.018 74.8281C269.632 76.0573 268.974 77.1901 268.041 78.2266C267.109 79.263 265.843 80.1771 264.244 80.9688L263.213 79.4062ZM280.85 70.2188C281.574 70.2188 282.217 70.4271 282.78 70.8438C283.347 71.2552 283.793 71.8438 284.116 72.6094C284.439 73.375 284.6 74.2656 284.6 75.2812C284.6 76.3021 284.439 77.1979 284.116 77.9688C283.793 78.7344 283.347 79.3255 282.78 79.7422C282.217 80.1536 281.574 80.3594 280.85 80.3594C280.126 80.3594 279.478 80.1536 278.905 79.7422C278.337 79.3255 277.894 78.7344 277.577 77.9688C277.259 77.1979 277.1 76.3021 277.1 75.2812C277.1 74.2656 277.259 73.375 277.577 72.6094C277.894 71.8438 278.337 71.2552 278.905 70.8438C279.478 70.4271 280.126 70.2188 280.85 70.2188ZM279.022 75.2812C279.022 75.974 279.097 76.5677 279.248 77.0625C279.399 77.5521 279.613 77.9245 279.889 78.1797C280.165 78.4297 280.485 78.5521 280.85 78.5469C281.22 78.5521 281.543 78.4297 281.819 78.1797C282.095 77.9245 282.308 77.5521 282.459 77.0625C282.616 76.5677 282.694 75.974 282.694 75.2812C282.694 74.5885 282.616 73.9974 282.459 73.5078C282.308 73.0182 282.095 72.6484 281.819 72.3984C281.543 72.1432 281.22 72.0156 280.85 72.0156C280.485 72.0156 280.165 72.1432 279.889 72.3984C279.613 72.6484 279.399 73.0208 279.248 73.5156C279.097 74.0052 279.022 74.5938 279.022 75.2812ZM286.241 69.2188H288.241V72.5156H290.256V74.1875H288.241V76.7188H290.256V78.3438H288.241V83.4375H286.241V69.2188ZM293.721 78.6094H291.721L291.518 70.6875H293.924L293.721 78.6094ZM291.424 80.8281C291.419 80.5938 291.474 80.3776 291.588 80.1797C291.708 79.9766 291.87 79.8177 292.073 79.7031C292.276 79.5885 292.497 79.5312 292.737 79.5312C292.966 79.5312 293.18 79.5885 293.378 79.7031C293.575 79.8177 293.734 79.9766 293.854 80.1797C293.974 80.3776 294.034 80.5938 294.034 80.8281C294.034 81.0677 293.974 81.2891 293.854 81.4922C293.734 81.6901 293.575 81.849 293.378 81.9688C293.18 82.0833 292.966 82.1406 292.737 82.1406C292.497 82.1406 292.276 82.0833 292.073 81.9688C291.87 81.849 291.708 81.6901 291.588 81.4922C291.474 81.2891 291.419 81.0677 291.424 80.8281Z" fill="black"/>
</svg>
