<svg width="86" height="86" viewBox="0 0 86 86" fill="none" xmlns="http://www.w3.org/2000/svg">
<circle cx="43" cy="43" r="42.4444" fill="#FFEB74" stroke="#EBEBF0" stroke-width="1.11111"/>
<path d="M41.4905 52.361C41.4905 58.4108 36.6959 63.2944 30.8067 63.2944C24.9175 63.2944 20.1229 58.4108 20.1229 52.361C20.1229 46.3112 24.9175 41.4276 30.8067 41.4276C36.6959 41.4276 41.4905 46.3112 41.4905 52.361Z" fill="white" stroke="#111111" stroke-width="1.09744"/>
<path d="M40.8123 48.9951C42.2472 54.1408 39.7202 59.1838 35.1991 60.2785C30.678 61.3732 25.8361 58.1144 24.4012 52.9687C22.9663 47.823 25.4932 42.7799 30.0143 41.6853C34.5354 40.5906 39.3774 43.8494 40.8123 48.9951Z" fill="#111111" stroke="#111111" stroke-width="0.182907"/>
<path d="M64.346 43.1442C64.346 49.194 59.5514 54.0776 53.6622 54.0776C47.773 54.0776 42.9784 49.194 42.9784 43.1442C42.9784 37.0944 47.773 32.2108 53.6622 32.2108C59.5514 32.2108 64.346 37.0944 64.346 43.1442Z" fill="white" stroke="#111111" stroke-width="1.09744"/>
<path d="M63.7498 39.5049C65.1847 44.6506 62.6577 49.6936 58.1366 50.7883C53.6155 51.8829 48.7736 48.6241 47.3387 43.4784C45.9038 38.3327 48.4307 33.2897 52.9518 32.195C57.4729 31.1003 62.3149 34.3592 63.7498 39.5049Z" fill="#111111" stroke="#111111" stroke-width="0.182907"/>
<path d="M43.4894 64.3607C45.0163 65.1085 46.9287 65.3151 48.8464 64.8012C51.6998 64.0366 53.7454 61.8969 54.1941 59.519" stroke="#111111" stroke-width="1.46326" stroke-linecap="round"/>
<path d="M28.4254 35.5904C29.2011 37.039 28.9259 38.961 24.7689 40.9235C20.6118 42.886 19.0789 42.4593 18.3032 41.0107C17.5275 39.5621 18.2584 37.438 21.9597 35.6776C25.661 33.9171 27.6497 34.1417 28.4254 35.5904Z" fill="#FFB700"/>
<path d="M51.1441 25.8836C51.9199 27.3322 51.6446 29.2542 47.4876 31.2167C43.3306 33.1793 41.7977 32.7525 41.0219 31.3039C40.2462 29.8553 40.9772 27.7312 44.6785 25.9708C48.3797 24.2103 50.3684 24.435 51.1441 25.8836Z" fill="#FFB700"/>
<path d="M20.4477 34.1811C19.7744 33.3253 19.9236 32.088 20.7998 31.2612L-nan -nanL-nan -nanL20.7998 31.2612C23.0574 29.1309 26.0509 27.8194 29.1475 27.6038L-nan -nanL-nan -nanL29.1475 27.6038C30.3492 27.5202 31.3599 28.2493 31.5327 29.3244L31.6517 30.0646C31.8907 31.5517 31.2296 33.1156 29.9196 34.1624L-nan -nanL-nan -nanL29.9196 34.1624C28.5316 35.2713 26.854 36.0063 25.0979 36.2749L-nan -nanL-nan -nanL25.0979 36.2749C23.4403 36.5284 21.8424 35.9542 20.9112 34.7704L20.4477 34.1811Z" fill="#595857"/>
<path d="M20.4477 34.1811C19.7744 33.3253 19.9236 32.088 20.7998 31.2612L-nan -nanL-nan -nanL20.7998 31.2612C23.0574 29.1309 26.0509 27.8194 29.1475 27.6038L-nan -nanL-nan -nanL29.1475 27.6038C30.3492 27.5202 31.3599 28.2493 31.5327 29.3244L31.6517 30.0646C31.8907 31.5517 31.2296 33.1156 29.9196 34.1624L-nan -nanL-nan -nanL29.9196 34.1624C28.5316 35.2713 26.854 36.0063 25.0979 36.2749L-nan -nanL-nan -nanL25.0979 36.2749C23.4403 36.5284 21.8424 35.9542 20.9112 34.7704L20.4477 34.1811Z" fill="#3C3C3C"/>
<path d="M20.4477 34.1811L20.9112 34.7704C21.3583 35.3388 21.959 35.7666 22.6462 36.0298L24.7241 28.6862C23.2815 29.3094 21.9458 30.1798 20.7998 31.2612C19.9236 32.088 19.7744 33.3253 20.4477 34.1811Z" fill="#595857"/>
<path d="M46.4686 22.773C46.2958 21.6979 45.285 20.9688 44.0833 21.0524L-nan -nanL-nan -nanL44.0833 21.0524C40.9867 21.268 37.9933 22.5795 35.7356 24.7099L-nan -nanL-nan -nanL35.7356 24.7099C34.8595 25.5366 34.7103 26.7739 35.3835 27.6297L35.847 28.219C36.7782 29.4028 38.3761 29.977 40.0337 29.7235L-nan -nanL-nan -nanL40.0337 29.7235C41.7899 29.4549 43.4674 28.7199 44.8554 27.611L-nan -nanL-nan -nanL44.8554 27.611C46.1655 26.5643 46.8266 25.0003 46.5876 23.5133L46.4686 22.773Z" fill="#3C3C3C"/>
<path d="M35.4047 27.6225L35.8682 28.2118C36.3153 28.7802 36.916 29.208 37.6033 29.4712L39.6811 22.1276C38.2386 22.7508 36.9029 23.6212 35.7568 24.7027C34.8807 25.5294 34.7315 26.7667 35.4047 27.6225Z" fill="#595857"/>
<path fill-rule="evenodd" clip-rule="evenodd" d="M34.8157 28.9441L34.3521 28.3548C34.2483 28.2228 34.1574 28.0848 34.0793 27.942C33.7695 27.6425 33.4026 27.4302 33.0384 27.5898C32.7385 27.7212 32.6111 28.0298 32.5845 28.3736C32.6738 28.5868 32.7391 28.8133 32.7773 29.051L32.8963 29.7912C33.2 31.681 32.3599 33.6684 30.6951 34.9985C29.1122 36.2631 27.1991 37.1013 25.1964 37.4077C23.09 37.7298 21.0594 37.0002 19.8761 35.4958L19.4125 34.9065C19.0903 34.4969 18.8927 34.0295 18.815 33.5423C18.7796 33.5489 18.744 33.5549 18.7084 33.5603C18.1601 33.6434 17.632 33.4528 17.3246 33.0609L17.3016 33.0316C17.0143 32.6654 17.1336 32.125 17.5658 31.8345L21.672 29.0751C21.7554 29.0191 21.8412 28.9668 21.9289 28.9185C24.0787 27.4952 26.592 26.6284 29.1701 26.4489C29.3695 26.435 29.5655 26.436 29.7568 26.4508C30.672 26.3472 31.538 26.2112 32.29 25.8818C33.0423 25.5522 33.55 25.0861 34.1701 24.5167C34.5905 24.1308 35.0625 23.6975 35.6974 23.2271C37.4206 21.8264 39.4546 20.8195 41.609 20.2899C41.704 20.2581 41.8006 20.2305 41.8983 20.2072L45.682 19.3045C46.1861 19.0216 47.8688 18.3164 49.5478 17.6128C50.525 17.2032 51.501 16.7942 52.2425 16.4694L52.2438 16.4717C53.0559 16.1162 54.3195 15.9114 54.4571 17.1087C54.5742 18.1273 53.3278 19.0752 51.9264 18.7699L47.1475 21.1137C47.1423 21.1177 47.137 21.1217 47.1318 21.1256C47.1276 21.1288 47.1233 21.132 47.1191 21.1352C47.4246 21.5226 47.6342 21.9847 47.7169 22.4993L47.8359 23.2395C48.1396 25.1293 47.2995 27.1167 45.6347 28.4468C44.0518 29.7114 42.1387 30.5496 40.136 30.8559C38.0296 31.1781 35.999 30.4485 34.8157 28.9441ZM45.9368 21.7027C45.4927 21.2504 44.8277 20.9961 44.0908 21.0474C40.9942 21.2629 38.0007 22.5744 35.743 24.7048C34.8669 25.5315 34.7177 26.7688 35.3909 27.6247L35.8544 28.214C36.7856 29.3978 38.3835 29.972 40.0411 29.7184C41.7973 29.4498 43.4748 28.7148 44.8628 27.6059C46.1729 26.5592 46.834 24.9953 46.595 23.5082L46.476 22.7679C46.4092 22.3521 46.217 21.988 45.9368 21.7027ZM23.9338 29.0549C24.9761 28.5233 26.0863 28.125 27.23 27.8751C27.8621 27.7369 28.5044 27.6441 29.1512 27.5991C30.276 27.5208 31.2335 28.1546 31.4931 29.1177C31.5086 29.1753 31.5217 29.234 31.5321 29.2939C31.5336 29.3025 31.535 29.311 31.5364 29.3196L31.6554 30.0599C31.8645 31.3611 31.3845 32.7211 30.3836 33.742C30.2406 33.8878 30.087 34.0268 29.9232 34.1576C28.7087 35.1279 27.2725 35.8119 25.756 36.1477C25.5393 36.1957 25.321 36.2366 25.1015 36.2701C23.4439 36.5237 21.846 35.9495 20.9148 34.7657L20.4513 34.1764C20.1909 33.8453 20.0535 33.4572 20.0337 33.0579C20.0023 32.4248 20.2662 31.7635 20.8034 31.2565C21.7361 30.3764 22.7945 29.636 23.9338 29.0549Z" fill="black"/>
</svg>
