<svg width="24" height="23" viewBox="0 0 24 23" fill="none" xmlns="http://www.w3.org/2000/svg">
<g clip-path="url(#clip0_4717_47542)">
<path d="M12.0001 0C5.37252 0 0.00195312 4.24722 0.00195312 9.48661C0.00195312 12.8971 2.27849 15.8854 5.69454 17.5577C5.44587 18.4952 4.78567 20.9532 4.65387 21.4785C4.49162 22.1313 4.89321 22.1226 5.15618 21.9466C5.36257 21.8093 8.44479 19.7142 9.77453 18.8097C10.512 18.919 11.2565 18.9738 12.002 18.9738C18.6295 18.9738 24.0001 14.7254 24.0001 9.48661C24.0001 4.24784 18.6277 0 12.002 0" fill="#391B1B"/>
<path d="M7.17153 6.69287H3.66223C3.50395 6.69287 3.35215 6.75575 3.24023 6.86767C3.12831 6.97959 3.06543 7.13139 3.06543 7.28967C3.06543 7.44795 3.12831 7.59975 3.24023 7.71167C3.35215 7.82359 3.50395 7.88647 3.66223 7.88647H4.80298V12.0902C4.80367 12.2449 4.86558 12.3931 4.97518 12.5023C5.08396 12.6113 5.23154 12.6725 5.38548 12.6727H5.50981C5.66352 12.6723 5.81083 12.611 5.91949 12.5023C6.02887 12.393 6.09055 12.2448 6.09107 12.0902V7.88647H7.16842C7.24684 7.88655 7.32452 7.87117 7.39699 7.84122C7.46947 7.81126 7.53534 7.76732 7.59082 7.71189C7.6463 7.65646 7.69032 7.59064 7.72035 7.5182C7.75038 7.44575 7.76584 7.36809 7.76584 7.28967C7.76584 7.13182 7.7033 6.9804 7.59192 6.86855C7.48054 6.7567 7.32938 6.69353 7.17153 6.69287V6.69287Z" fill="#FAE300"/>
<path d="M15.6044 11.5499H13.9726V7.25668C13.9727 7.17161 13.956 7.08736 13.9235 7.00874C13.891 6.93011 13.8434 6.85866 13.7833 6.79845C13.7232 6.73824 13.6518 6.69045 13.5733 6.65783C13.4947 6.6252 13.4105 6.60836 13.3254 6.60828C13.2401 6.60803 13.1557 6.62463 13.0768 6.65711C12.998 6.68959 12.9263 6.73732 12.866 6.79757C12.8056 6.85781 12.7577 6.92937 12.7251 7.00816C12.6925 7.08695 12.6757 7.1714 12.6758 7.25668V11.8843C12.6764 11.9192 12.68 11.9539 12.6863 11.9882C12.6794 12.0221 12.6758 12.0567 12.6758 12.0914C12.6757 12.1626 12.6897 12.2331 12.7169 12.2989C12.7441 12.3647 12.784 12.4245 12.8344 12.4749C12.8847 12.5252 12.9445 12.5651 13.0103 12.5924C13.0761 12.6196 13.1467 12.6335 13.2179 12.6335H15.6026C15.6737 12.6335 15.7442 12.6194 15.8099 12.5922C15.8757 12.5649 15.9354 12.525 15.9857 12.4746C16.036 12.4243 16.0758 12.3645 16.103 12.2988C16.1302 12.233 16.1441 12.1625 16.1441 12.0914C16.1441 11.9481 16.0873 11.8106 15.9861 11.7091C15.885 11.6077 15.7477 11.5504 15.6044 11.5499V11.5499Z" fill="#FAE300"/>
<path d="M20.8203 11.747L19.0019 9.35852L20.645 7.71484C20.6983 7.66191 20.7406 7.59896 20.7695 7.52961C20.7983 7.46026 20.8132 7.38588 20.8132 7.31076C20.8132 7.23564 20.7983 7.16126 20.7695 7.09191C20.7406 7.02256 20.6983 6.95961 20.645 6.90668C20.592 6.85344 20.5291 6.8112 20.4597 6.78238C20.3904 6.75356 20.316 6.73872 20.2409 6.73872C20.1658 6.73872 20.0915 6.75356 20.0221 6.78238C19.9528 6.8112 19.8898 6.85344 19.8368 6.90668L17.8027 8.94076V7.25667C17.8028 7.17161 17.7861 7.08736 17.7537 7.00873C17.7212 6.93011 17.6735 6.85865 17.6135 6.79844C17.5534 6.73824 17.482 6.69045 17.4034 6.65782C17.3249 6.62519 17.2407 6.60836 17.1556 6.60828C17.0705 6.60828 16.9862 6.62505 16.9076 6.65764C16.8289 6.69024 16.7575 6.73801 16.6973 6.79822C16.6372 6.85844 16.5895 6.92993 16.5569 7.00859C16.5244 7.08725 16.5077 7.17155 16.5078 7.25667V12.0267C16.5077 12.1118 16.5244 12.196 16.557 12.2746C16.5895 12.3532 16.6372 12.4246 16.6974 12.4847C16.7576 12.5448 16.829 12.5925 16.9076 12.6249C16.9863 12.6574 17.0705 12.674 17.1556 12.6739C17.2406 12.6739 17.3248 12.6573 17.4033 12.6248C17.4819 12.5923 17.5533 12.5446 17.6134 12.4845C17.6735 12.4244 17.7212 12.353 17.7536 12.2745C17.7861 12.1959 17.8028 12.1117 17.8027 12.0267V10.5546L18.1726 10.1853L19.8928 12.4426C19.9848 12.5648 20.1216 12.6455 20.2731 12.6671C20.4246 12.6887 20.5784 12.6493 20.7009 12.5576C20.7621 12.5123 20.8137 12.4553 20.8528 12.39C20.8919 12.3247 20.9177 12.2523 20.9288 12.177C20.9399 12.1017 20.936 12.025 20.9174 11.9512C20.8988 11.8774 20.8658 11.808 20.8203 11.747Z" fill="#FAE300"/>
<path d="M12.193 11.9018L10.4437 7.11498L10.4381 7.11001C10.3262 6.81844 10.0029 6.60583 9.61873 6.60583C9.19165 6.60583 8.83854 6.86693 8.76829 7.20823C8.75582 7.2339 8.74482 7.26026 8.73534 7.28718L7.0183 11.9018C6.993 11.9736 6.98209 12.0498 6.9862 12.1258C6.99031 12.2019 7.00936 12.2764 7.04227 12.3451C7.07517 12.4138 7.12128 12.4753 7.17797 12.5262C7.23466 12.5771 7.30081 12.6163 7.37265 12.6416C7.51777 12.6915 7.67672 12.6819 7.81484 12.6151C7.95296 12.5483 8.05904 12.4295 8.10995 12.2847L8.40711 11.4356H10.8011L11.0983 12.2847C11.1494 12.4298 11.256 12.5487 11.3947 12.6153C11.5334 12.6818 11.6929 12.6906 11.8381 12.6397C11.9827 12.5886 12.1013 12.4823 12.1678 12.344C12.2343 12.2057 12.2434 12.0467 12.193 11.9018V11.9018ZM8.78694 10.3532L9.59138 8.05742C9.6007 8.05742 9.60816 8.05742 9.61749 8.05742L10.4207 10.3501L8.78694 10.3532Z" fill="#FAE300"/>
</g>
<defs>
<clipPath id="clip0_4717_47542">
<rect width="24" height="22.0486" fill="white"/>
</clipPath>
</defs>
</svg>
