<svg width="184" height="46" viewBox="0 0 184 46" fill="none" xmlns="http://www.w3.org/2000/svg">
<path d="M35.0905 44C35.0905 45.1046 35.9859 46 37.0905 46H40.4813C41.5859 46 42.4813 45.1046 42.4813 44V24.3172C42.4813 24.0411 42.7052 23.8172 42.9813 23.8172H46.5444C46.8205 23.8172 47.0444 24.0411 47.0444 24.3172V44C47.0444 45.1046 47.9398 46 49.0444 46H52.4995C53.604 46 54.4995 45.1046 54.4995 44V3.29032C54.4995 2.18575 53.604 1.29032 52.4995 1.29032H49.0444C47.9398 1.29032 47.0444 2.18575 47.0444 3.29032V16.6075C47.0444 16.8837 46.8205 17.1075 46.5444 17.1075H42.9813C42.7052 17.1075 42.4813 16.8837 42.4813 16.6075V3.29032C42.4813 2.18575 41.5859 1.29032 40.4813 1.29032H37.0905C35.9859 1.29032 35.0905 2.18575 35.0905 3.29032V44ZM0 43.3548C0 44.4594 0.895431 45.3548 2 45.3548H27.6277C28.7322 45.3548 29.6277 44.4594 29.6277 43.3548V40.6452C29.6277 39.5406 28.7322 38.6452 27.6277 38.6452H8.01939C7.74324 38.6452 7.51938 38.4213 7.51938 38.1452V3.87097C7.51938 2.7664 6.62395 1.87097 5.51939 1.87097H2C0.895432 1.87097 0 2.7664 0 3.87097V43.3548Z" fill="black"/>
<path d="M62.6615 8.96774C62.6615 10.0723 63.557 10.9677 64.6616 10.9677H79.4356C77.7963 15.5997 75.5596 18.4564 64.6663 18.7583C63.5622 18.7889 62.6615 19.6804 62.6615 20.7849V23.2366C62.6615 24.3411 63.5599 25.2387 64.6643 25.2227C75.5286 25.0653 80.948 23.5339 83.6773 18.7849C86.2919 23.5461 91.3228 25.0731 102.689 25.2239C103.793 25.2385 104.693 24.3411 104.693 23.2366V20.7849C104.693 19.6804 103.794 18.7892 102.69 18.7565C92.1783 18.4449 89.6155 15.5904 87.919 10.9677H102.693C103.798 10.9677 104.693 10.0723 104.693 8.96774V6.25806C104.693 5.15349 103.798 4.25806 102.693 4.25806H87.5334V1C87.5334 0.447715 87.0856 0 86.5334 0H80.8854C80.3332 0 79.8854 0.447715 79.8854 1V4.25806H64.6616C63.557 4.25806 62.6615 5.15349 62.6615 6.25806V8.96774ZM62.6615 43.3548C62.6615 44.4594 63.557 45.3548 64.6616 45.3548H116.768C117.872 45.3548 118.768 44.4594 118.768 43.3548V40.6452C118.768 39.5406 117.872 38.6452 116.768 38.6452H70.6809C70.4048 38.6452 70.1809 38.4213 70.1809 38.1452V31.8925C70.1809 30.7879 69.2855 29.8925 68.1809 29.8925H64.6616C63.557 29.8925 62.6615 30.7879 62.6615 31.8925V43.3548ZM111.248 23.2366C111.248 24.3411 112.144 25.2366 113.248 25.2366H116.768C117.872 25.2366 118.768 24.3411 118.768 23.2366V3.29032C118.768 2.18575 117.872 1.29032 116.768 1.29032H113.248C112.144 1.29032 111.248 2.18575 111.248 3.29032V23.2366Z" fill="black"/>
<path d="M126.544 43.3548C126.544 44.4594 127.44 45.3548 128.544 45.3548H182C183.105 45.3548 184 44.4594 184 43.3548V40.5161C184 39.4116 183.105 38.5161 182 38.5161H159.564C159.288 38.5161 159.064 38.2923 159.064 38.0161V28.6667C159.064 27.5621 158.169 26.6667 157.064 26.6667H153.545C152.44 26.6667 151.545 27.5621 151.545 28.6667V38.0161C151.545 38.2923 151.321 38.5161 151.045 38.5161H128.544C127.44 38.5161 126.544 39.4116 126.544 40.5161V43.3548ZM127.187 22.5269C127.187 23.6315 128.087 24.5276 129.192 24.5232C143.109 24.4672 151.037 23.6918 155.272 16.914C159.507 23.6917 167.377 24.4672 181.288 24.5232C182.393 24.5276 183.293 23.6315 183.293 22.5269V19.7527C183.293 18.6481 182.393 17.7549 181.289 17.7376C167.552 17.5227 159.064 14.934 159.064 4.77419V3.93549C159.064 2.83092 158.169 1.93549 157.064 1.93549H153.545C152.44 1.93549 151.545 2.83092 151.545 3.93549V4.77419C151.545 14.9342 142.939 17.5228 129.191 17.7376C128.086 17.7548 127.187 18.6481 127.187 19.7527V22.5269Z" fill="black"/>
</svg>
