<svg width="96" height="24" viewBox="0 0 96 24" fill="none" xmlns="http://www.w3.org/2000/svg">
<path d="M18.3081 22.072C18.3081 23.1368 19.1713 24 20.2361 24C21.301 24 22.1642 23.1368 22.1642 22.072V12.9264C22.1642 12.6502 22.388 12.4264 22.6642 12.4264H24.0449C24.321 12.4264 24.5449 12.6502 24.5449 12.9264V22.0552C24.5449 23.1293 25.4156 24 26.4897 24C27.5638 24 28.4345 23.1293 28.4345 22.0552V2.61802C28.4345 1.54393 27.5638 0.673211 26.4897 0.673211C25.4156 0.673211 24.5449 1.54393 24.5449 2.61802V8.42567C24.5449 8.70181 24.321 8.92567 24.0449 8.92567H22.6642C22.388 8.92567 22.1642 8.70181 22.1642 8.42567V2.60126C22.1642 1.53643 21.301 0.673211 20.2361 0.673211C19.1713 0.673211 18.3081 1.53643 18.3081 2.60126V22.072ZM0 21.6634C0 22.768 0.895431 23.6634 2 23.6634H13.7076C14.6743 23.6634 15.4579 22.8797 15.4579 21.913C15.4579 20.9464 14.6743 20.1627 13.7076 20.1627H4.42316C4.14702 20.1627 3.92316 19.9388 3.92316 19.6627V2.93774C3.92316 1.85439 3.04493 0.976156 1.96158 0.976156C0.878229 0.976156 0 1.85439 0 2.93774V21.6634Z" fill="#111111"/>
<path d="M32.693 3.97195C32.693 4.93864 33.4766 5.7223 34.4433 5.7223H41.4446C40.6224 8.04581 39.5119 9.51314 34.3763 9.76282C33.4479 9.80796 32.693 10.5544 32.693 11.4839C32.693 12.4134 33.447 13.1706 34.3762 13.147C39.6206 13.014 42.2882 12.1838 43.6577 9.80084C44.9719 12.1939 47.456 13.021 52.9381 13.1487C53.8673 13.1703 54.6224 12.4134 54.6224 11.4839C54.6224 10.5544 53.8679 9.8084 52.9396 9.76019C47.9869 9.503 46.7206 8.03778 45.8708 5.7223H52.8721C53.8388 5.7223 54.6224 4.93864 54.6224 3.97195C54.6224 3.00526 53.8388 2.2216 52.8721 2.2216H45.6696V1C45.6696 0.447716 45.2219 0 44.6696 0H42.6794C42.1271 0 41.6794 0.447715 41.6794 1V2.2216H34.4433C33.4766 2.2216 32.693 3.00526 32.693 3.97195ZM32.693 21.6634C32.693 22.768 33.5884 23.6634 34.693 23.6634H60.2154C61.1821 23.6634 61.9658 22.8797 61.9658 21.913C61.9658 20.9464 61.1821 20.1627 60.2154 20.1627H37.1161C36.84 20.1627 36.6161 19.9388 36.6161 19.6627V17.5576C36.6161 16.4743 35.7379 15.5961 34.6546 15.5961C33.5712 15.5961 32.693 16.4743 32.693 17.5577V21.6634ZM58.0426 11.2053C58.0426 12.2887 58.9208 13.1669 60.0042 13.1669C61.0876 13.1669 61.9658 12.2887 61.9658 11.2053V2.63479C61.9658 1.55144 61.0876 0.673211 60.0042 0.673211C58.9208 0.673211 58.0426 1.55144 58.0426 2.63479V11.2053Z" fill="#111111"/>
<path d="M66.0231 21.8794C66.0231 22.8647 66.8218 23.6634 67.8071 23.6634H94.216C95.2013 23.6634 96 22.8647 96 21.8794C96 20.8941 95.2013 20.0954 94.216 20.0954H83.4899C83.2137 20.0954 82.9899 19.8715 82.9899 19.5954V15.8746C82.9899 14.7913 82.1117 13.913 81.0283 13.913C79.945 13.913 79.0667 14.7913 79.0667 15.8746V19.5954C79.0667 19.8715 78.8429 20.0954 78.5667 20.0954H67.8071C66.8218 20.0954 66.0231 20.8941 66.0231 21.8794ZM66.3584 11.0295C66.3584 12.0054 67.152 12.7984 68.128 12.7904C74.942 12.7347 78.8764 12.2417 81.0115 8.82468C83.1467 12.2416 87.0523 12.7346 93.8615 12.7904C94.8375 12.7984 95.6312 12.0054 95.6312 11.0295C95.6312 10.0535 94.8376 9.26641 93.862 9.23849C87.1218 9.04555 82.9899 7.61091 82.9899 2.49088C82.9899 1.67291 82.3268 1.00982 81.5088 1.00982H80.5478C79.7298 1.00982 79.0667 1.67291 79.0667 2.49088C79.0667 7.61121 74.8773 9.04572 68.1275 9.23852C67.1519 9.26639 66.3584 10.0535 66.3584 11.0295Z" fill="#111111"/>
</svg>
