<svg width="25" height="24" viewBox="0 0 25 24" fill="none" xmlns="http://www.w3.org/2000/svg">
<path d="M15.5265 8.537L19.0615 5H14.4765V3H22.4765V11H20.4765V6.414L16.9395 9.951C18.0934 11.4635 18.6293 13.358 18.4389 15.2508C18.2484 17.1437 17.3458 18.8934 15.9137 20.1457C14.4817 21.398 12.6272 22.0594 10.7259 21.9958C8.82458 21.9322 7.01846 21.1485 5.67327 19.8033C4.32807 18.4581 3.54434 16.652 3.48076 14.7506C3.41718 12.8493 4.0785 10.9949 5.33082 9.5628C6.58314 8.13075 8.33287 7.2281 10.2257 7.03764C12.1185 6.84719 14.013 7.38315 15.5255 8.537H15.5265ZM10.9765 20C12.4352 20 13.8342 19.4205 14.8656 18.3891C15.8971 17.3576 16.4765 15.9587 16.4765 14.5C16.4765 13.0413 15.8971 11.6424 14.8656 10.6109C13.8342 9.57946 12.4352 9 10.9765 9C9.51784 9 8.11889 9.57946 7.08744 10.6109C6.05599 11.6424 5.47653 13.0413 5.47653 14.5C5.47653 15.9587 6.05599 17.3576 7.08744 18.3891C8.11889 19.4205 9.51784 20 10.9765 20Z" fill="#999999"/>
</svg>
