<svg width="54" height="36" viewBox="0 0 54 36" fill="none" xmlns="http://www.w3.org/2000/svg">
<path d="M0.765625 25.3655V12.2803H5.32684V22.4463C5.32684 22.936 5.67957 23.1316 6.22768 23.1316C6.67723 23.1316 7.24608 23.0727 7.81321 22.8962V12.2803H12.2949V18.0788H12.8828V12.2803H17.3645V28.3626H12.8828V22.4273H12.2949V28.3626H7.81321V27.6375C6.75676 28.0874 5.56199 28.3435 4.36895 28.3435C1.8238 28.3435 0.767354 27.5008 0.767354 25.3655H0.765625Z" fill="#121213"/>
<path d="M18.7734 18.2938C19.8506 18.2938 20.6529 17.51 20.6529 16.3938V16.354H18.7734V12.8673H19.8887C20.046 13.5145 21.0437 14.3554 21.846 14.3952L22.1001 14.0042C21.0229 13.8277 20.3002 13.1026 20.3002 12.4364V11.5557H27.4636V12.8673H28.814V16.354H27.1109V16.3938C27.1109 17.51 27.64 18.2938 28.814 18.2938V21.7806C26.6216 21.7806 24.7421 21.4085 22.9819 19.5484L22.5704 19.9014C22.8056 20.2544 23.1963 20.6056 23.5888 20.8808C22.2782 21.5279 20.4575 21.7823 18.7734 21.7823V18.2956V18.2938ZM24.5675 22.2114C24.5675 23.4642 25.8003 24.21 27.8163 24.2879C30.282 24.3658 33.4133 24.21 35.3705 23.4262V27.7556C33.0813 28.382 30.4583 28.6364 27.346 28.6364C21.2788 28.6364 18.2651 26.6776 18.891 22.2114H24.5675ZM29.3241 12.2807H35.3723V22.779C34.0029 23.3466 30.8318 23.7774 29.3241 23.6805V12.2807Z" fill="#121213"/>
<path d="M36.7752 22.583V18.1359C40.299 17.9404 41.7462 16.9212 41.7462 14.0228V12.2803H48.3615V14.0228C48.3615 16.9212 49.8485 17.9404 53.3723 18.1359V22.583C48.4981 22.583 46.3264 22.211 43.4095 20.311L42.7248 20.664C43.1744 20.9963 43.7622 21.2904 44.4072 21.5656C42.2338 22.2127 39.9635 22.6038 36.7734 22.5848L36.7752 22.583ZM53.3723 28.3608H36.7752V24.0124H42.0591V22.4654H48.0866V24.0124H53.3705V28.3608H53.3723Z" fill="#121213"/>
<path d="M40.9948 0.825195C40.3014 2.04858 38.0554 3.9849 36.3125 4.2583C37.547 5.51976 38.192 8.41471 38.0173 9.81114C38.7107 8.58775 40.9567 6.65144 42.6996 6.37803C41.4651 5.11657 40.8201 2.22162 40.9948 0.825195Z" fill="#121213"/>
<path d="M6.29762 29.4307C7.85722 31.4812 10.7707 32.8222 14.6748 33.414C19.7963 34.191 26.0312 33.3085 32.1952 31.1836C33.7168 30.6592 34.8148 30.2803 36.2239 29.6279L40.0434 29.5777C37.8025 30.8202 35.0499 31.8255 32.5826 32.6769C27.8744 34.3 23.1247 35.1392 18.8107 35.1392C17.2909 35.1392 15.8281 35.0354 14.438 34.8243C9.79721 34.12 6.44113 32.2927 4.78125 29.6124L6.29762 29.4307Z" fill="#121213"/>
<path d="M35.3742 4.30176C31.6291 4.52152 27.6696 5.46285 23.6963 6.83159C20.4595 7.9477 17.2642 9.36835 14.5859 11.0105H17.4665C19.5345 9.90132 21.7753 8.92364 24.1354 8.11036C28.3249 6.66548 32.5386 5.86257 36.4168 5.73972L35.3742 4.30176Z" fill="#121213"/>
<path d="M42.5547 4.54492C48.0133 5.31668 51.0737 8.07666 52.2339 11.4509C52.8027 13.1035 52.8736 14.7992 52.1595 16.7338L50.7434 16.341C51.2431 14.7352 51.4368 13.2869 50.9561 11.8922C50.0778 9.33811 47.7799 7.37758 43.8584 6.47777C43.8584 6.47777 43.2688 5.46203 42.5547 4.54665V4.54492Z" fill="#121213"/>
</svg>
