<svg width="16" height="16" viewBox="0 0 16 16" fill="none" xmlns="http://www.w3.org/2000/svg">
<rect x="0.5" y="0.5" width="15" height="15" rx="7.5" fill="#56565E"/>
<path d="M6.76953 9.32812C6.77539 7.86914 7.16797 7.42383 7.87109 6.98438C8.375 6.65625 8.76758 6.29297 8.76172 5.75391C8.76758 5.16797 8.31055 4.78711 7.74219 4.78125C7.19727 4.78711 6.6875 5.15039 6.66406 5.83594H5C5.0293 4.18945 6.25391 3.39844 7.75391 3.39844C9.38867 3.39844 10.543 4.24805 10.543 5.69531C10.543 6.66211 10.0449 7.27148 9.27734 7.73438C8.61523 8.12695 8.32227 8.50781 8.31641 9.32812V9.45703H6.76953V9.32812ZM6.59375 11.1211C6.58203 10.582 7.02734 10.1426 7.57812 10.1484C8.09961 10.1426 8.55078 10.582 8.55078 11.1211C8.55078 11.666 8.09961 12.1055 7.57812 12.1055C7.02734 12.1055 6.58203 11.666 6.59375 11.1211Z" fill="#FF7A00"/>
<rect x="0.5" y="0.5" width="15" height="15" rx="7.5" stroke="#56565E"/>
</svg>
