<svg width="129" height="32" viewBox="0 0 129 32" fill="none" xmlns="http://www.w3.org/2000/svg">
<path d="M41.5933 4.66522C41.5909 5.54936 41.3667 6.32238 40.8101 6.87346C40.1422 7.53475 39.3641 7.86419 38.3649 7.86147C37.3658 7.85875 36.5895 7.52508 35.9252 6.86016C35.2609 6.19524 34.93 5.42071 34.9327 4.42605C34.9355 3.43139 35.2706 2.65867 35.9386 1.99738C36.6065 1.33609 37.3846 1.00665 38.3838 1.00937C38.8278 1.01058 39.2716 1.1223 39.7151 1.34455C40.1586 1.56679 40.491 1.78873 40.7122 2.12089L40.1555 2.67197C39.713 2.11817 39.1585 1.89562 38.3813 1.89351C37.7152 1.8917 37.0485 2.11092 36.6029 2.6623C36.0466 3.10286 35.8227 3.76536 35.8206 4.53899C35.8185 5.31261 36.0387 5.97632 36.5926 6.41991C37.1465 6.86349 37.7006 7.19655 38.3668 7.19837C39.1439 7.20048 39.6996 6.98096 40.2562 6.42988C40.5902 6.09923 40.8135 5.65776 40.815 5.10518L38.3725 5.09853L38.375 4.21438L41.5946 4.22315L41.5933 4.66522ZM46.7079 1.91617L43.7103 1.90801L43.7045 4.00785L46.4801 4.01541L46.4779 4.78903L43.7024 4.78148L43.6967 6.88132L46.6942 6.88947L46.6918 7.77362L42.8061 7.76304L42.8243 1.13197L46.71 1.14255L46.7079 1.91617ZM50.3554 7.78359L49.4673 7.78117L49.4834 1.92373L47.596 1.91859L47.5982 1.14496L52.261 1.15766L52.2589 1.93128L50.3715 1.92614L50.3554 7.78359ZM55.4624 7.79749L55.4806 1.16642L56.3688 1.16884L56.3506 7.79991L55.4624 7.79749ZM60.1252 7.81018L59.2371 7.80776L59.2532 1.95032L57.3658 1.94518L57.3679 1.17155L61.9198 1.18394L61.9177 1.95757L60.0303 1.95243L60.0142 7.80988L60.1252 7.81018ZM70.6746 6.95474C70.0067 7.61604 69.2286 7.94548 68.2294 7.94276C67.2302 7.94004 66.454 7.60637 65.7897 6.94145C65.1254 6.27653 64.7945 5.502 64.7972 4.50734C64.7999 3.51267 65.1351 2.73996 65.8031 2.07866C66.471 1.41737 67.2491 1.08793 68.2482 1.09065C69.2474 1.09337 70.0237 1.42704 70.688 2.09196C71.3523 2.75688 71.6832 3.53141 71.6805 4.52607C71.6777 5.52073 71.3425 6.29345 70.6746 6.95474ZM66.4574 6.39067C66.9002 6.83395 67.5654 7.16732 68.2315 7.16913C68.8977 7.17094 69.5644 6.95172 70.01 6.40034C70.4553 5.95948 70.7902 5.29728 70.7923 4.52365C70.7944 3.75003 70.5742 3.08632 70.0203 2.64273C69.5775 2.19945 68.9122 1.86609 68.2461 1.86427C67.58 1.86246 66.9133 2.08168 66.4677 2.63306C66.0224 3.07393 65.6875 3.73613 65.6854 4.50975C65.6832 5.28338 65.9035 5.94709 66.4574 6.39067ZM72.8926 7.84493L72.9108 1.21386L73.91 1.21658L77.1153 6.41968L77.1296 1.22534L78.0177 1.22776L77.9995 7.85883L77.1114 7.85641L73.6846 2.43167L73.6697 7.84704L72.8926 7.84493Z" fill="white" stroke="white" stroke-width="0.346436" stroke-miterlimit="10"/>
<path d="M64.5384 17.5478C61.8739 17.5406 59.759 19.5242 59.7515 22.2871C59.7442 24.9395 61.8478 27.0451 64.5123 27.0524C67.1768 27.0596 69.2916 25.076 69.2992 22.3131C69.3071 19.4396 67.2029 17.5551 64.5384 17.5478ZM64.5177 25.063C63.0745 25.0591 61.8566 23.8401 61.8611 22.1823C61.8657 20.5246 63.0903 19.3122 64.5335 19.3161C65.9768 19.32 67.195 20.4285 67.1901 22.1968C67.1856 23.8546 65.961 25.067 64.5177 25.063ZM54.2135 17.5197C51.549 17.5125 49.4341 19.4961 49.4266 22.259C49.4193 24.9114 51.5229 27.017 54.1874 27.0243C56.8519 27.0315 58.9667 25.0479 58.9743 22.285C58.9822 19.4115 56.878 17.527 54.2135 17.5197ZM54.1928 25.0349C52.7496 25.031 51.5317 23.812 51.5363 22.1542C51.5408 20.4965 52.7654 19.2841 54.2086 19.288C55.6519 19.2919 56.8701 20.4004 56.8652 22.1687C56.8607 23.8265 55.6361 25.0389 54.1928 25.0349ZM41.8863 18.9229L41.8808 20.9122L46.6547 20.9252C46.5406 22.0301 46.0941 22.913 45.5375 23.4641C44.8696 24.1254 43.7572 24.896 41.8699 24.8909C38.8723 24.8827 36.6583 22.5558 36.6665 19.5718C36.6747 16.5878 39.0125 14.2733 41.899 14.2812C43.4533 14.2854 44.6727 14.9518 45.5588 15.7279L47.006 14.2951C45.7878 13.1866 44.2359 12.2982 42.0155 12.2922C38.0188 12.2813 34.568 15.5874 34.5571 19.5661C34.5462 23.5447 37.9787 26.8696 41.9754 26.8805C44.1959 26.8866 45.752 26.2277 47.0882 24.7946C48.424 23.472 48.8733 21.5944 48.8772 20.1577C48.8784 19.7156 48.8797 19.2735 48.7695 18.9417L41.8863 18.9229ZM92.2853 20.6074C91.8442 19.501 90.7392 17.6191 88.2967 17.6125C85.8543 17.6058 83.8508 19.4792 83.8429 22.3527C83.8356 25.0051 85.8282 27.1104 88.4927 27.1176C90.6021 27.1234 91.9379 25.8008 92.3842 25.0284L90.8329 23.919C90.2757 24.6911 89.608 25.2419 88.4978 25.2388C87.3876 25.2358 86.7227 24.7919 86.1704 23.7958L92.5058 21.1606L92.2853 20.6074ZM85.8418 22.1371C85.8467 20.3688 87.2927 19.3781 88.2919 19.3808C89.069 19.3829 89.845 19.8271 90.0655 20.3803L85.8418 22.1371ZM80.6114 26.6541L82.7208 26.6599L82.7588 12.8451L80.6494 12.8394L80.6114 26.6541ZM77.303 18.5772C76.7494 18.0231 75.8628 17.4681 74.7526 17.4651C72.4211 17.4588 70.195 19.5526 70.1877 22.205C70.1804 24.8574 72.2843 26.8525 74.7268 26.8591C75.837 26.8622 76.7266 26.312 77.1722 25.7606L77.2833 25.7609L77.2814 26.424C77.2766 28.1923 76.2747 29.1842 74.7204 29.18C73.4992 29.1767 72.6134 28.2901 72.3935 27.5159L70.6151 28.2847C71.1668 29.5019 72.4948 31.0528 74.8262 31.0591C77.2687 31.0658 79.271 29.6345 79.2804 26.2084L79.3035 17.8091L77.3051 17.8036L77.303 18.5772ZM74.8426 25.0911C73.3994 25.0872 72.1815 23.8682 72.186 22.2104C72.1906 20.5527 73.4152 19.3403 74.8584 19.3442C76.3017 19.3481 77.4085 20.5669 77.404 22.2246C77.3994 23.8824 76.2859 25.0951 74.8426 25.0911ZM101.965 12.8974L96.9694 12.8838L96.9314 26.6985L99.0408 26.7043L99.0551 21.5099L101.942 21.5178C104.273 21.5241 106.498 19.8724 106.505 17.22C106.513 14.5676 104.297 12.9037 101.965 12.8974ZM102.058 19.5288L99.0605 19.5206L99.0736 14.7683L102.071 14.7765C103.625 14.7807 104.51 16.1094 104.507 17.104C104.393 18.3194 103.501 19.5327 102.058 19.5288ZM114.831 17.5742C113.277 17.57 111.721 18.2288 111.161 19.6641L113.047 20.4428C113.493 19.6704 114.16 19.4512 114.937 19.4533C116.047 19.4563 117.044 20.1221 117.152 21.2276L117.152 21.3381C116.82 21.1162 115.932 20.7822 115.044 20.7798C113.046 20.7744 111.044 21.8741 111.039 23.8634C111.034 25.7422 112.696 26.9625 114.472 26.9673C115.915 26.9712 116.583 26.3099 117.14 25.6483L117.251 25.6486L117.248 26.7538L119.247 26.7593L119.261 21.4544C119.046 19.0224 117.162 17.5805 114.831 17.5742ZM114.588 25.1993C113.922 25.1975 112.924 24.8632 112.926 23.9791C112.929 22.8739 114.151 22.5457 115.15 22.5484C116.038 22.5508 116.482 22.7731 117.036 22.9956C116.811 24.3212 115.698 25.2023 114.588 25.1993ZM126.265 17.9369L123.917 23.8985L123.806 23.8982L121.38 17.9236L119.16 17.9175L122.8 26.3269L120.678 30.9629L122.788 30.9686L128.485 17.9429L126.265 17.9369ZM107.589 26.7275L109.699 26.7333L109.737 12.9185L107.627 12.9128L107.589 26.7275Z" fill="white"/>
<path d="M0.520985 1.56981C0.187014 1.90046 0.074476 2.45275 0.0726548 3.11585L0.00557304 27.5403C0.00375181 28.2034 0.224275 28.7566 0.556425 29.0891L0.667143 29.1999L14.4713 15.5331L14.4719 15.3121L0.520985 1.56981Z" fill="url(#paint0_linear_5523_70310)"/>
<path d="M18.8996 20.187L14.3602 15.6434L14.3611 15.3118L18.9254 10.793L19.0361 10.9038L24.4676 14.0131C26.0194 14.9015 26.0155 16.3382 24.4588 17.2181L18.8996 20.187Z" fill="url(#paint1_linear_5523_70310)"/>
<path d="M19.012 20.0767L14.3619 15.4223L0.446433 29.1993C1.00002 29.7534 1.77716 29.7555 2.77756 29.3161L19.012 20.0767Z" fill="url(#paint2_linear_5523_70310)"/>
<path d="M19.0364 10.7932L2.85265 1.57613C1.85498 1.02082 1.07753 1.12922 0.520915 1.6803L14.3608 15.4223L19.0364 10.7932Z" fill="url(#paint3_linear_5523_70310)"/>
<path opacity="0.2" d="M18.9003 19.9659L2.77749 28.9846C1.8878 29.5348 1.11097 29.4221 0.557078 28.9785L0.445754 29.0888L0.556471 29.1996C1.11036 29.6432 1.8872 29.7558 2.77688 29.2056L18.9003 19.9659Z" fill="#33333C"/>
<path opacity="0.12" d="M0.445808 28.9783C0.113658 28.6458 0.00415571 28.0929 0.00597694 27.4298L0.0056734 27.5403C0.00385218 28.2034 0.224375 28.7566 0.556526 29.0891L0.556829 28.9786L0.445808 28.9783ZM24.4596 16.8866L18.9001 19.966L19.0108 20.0768L24.4593 16.9971C25.2376 16.5571 25.5722 16.0054 25.5737 15.4529C25.5722 16.0054 25.1269 16.4463 24.4596 16.8866Z" fill="#33333C"/>
<path opacity="0.25" d="M2.85226 1.68658L24.4675 14.013C25.1324 14.4569 25.5753 14.9001 25.5738 15.4527C25.5753 14.9001 25.2438 14.3467 24.4678 13.9025L2.85256 1.57606C1.30071 0.687687 0.0776612 1.34747 0.0728046 3.11576L0.072501 3.22627C0.0770541 1.56851 1.3004 0.798205 2.85226 1.68658Z" fill="white"/>
<defs>
<linearGradient id="paint0_linear_5523_70310" x1="13.1736" y1="2.94152" x2="-5.42556" y2="21.5223" gradientUnits="userSpaceOnUse">
<stop stop-color="#00A0FF"/>
<stop offset="0.007" stop-color="#00A1FF"/>
<stop offset="0.26" stop-color="#00BEFF"/>
<stop offset="0.512" stop-color="#00D2FF"/>
<stop offset="0.76" stop-color="#00DFFF"/>
<stop offset="1" stop-color="#00E3FF"/>
</linearGradient>
<linearGradient id="paint1_linear_5523_70310" x1="26.4998" y1="15.4565" x2="-0.363846" y2="15.3827" gradientUnits="userSpaceOnUse">
<stop stop-color="#FFE000"/>
<stop offset="0.409" stop-color="#FFBD00"/>
<stop offset="0.775" stop-color="#FFA500"/>
<stop offset="1" stop-color="#FF9C00"/>
</linearGradient>
<linearGradient id="paint2_linear_5523_70310" x1="16.4943" y1="17.9656" x2="-8.72647" y2="43.1629" gradientUnits="userSpaceOnUse">
<stop stop-color="#FF3A44"/>
<stop offset="1" stop-color="#C31162"/>
</linearGradient>
<linearGradient id="paint3_linear_5523_70310" x1="-2.90151" y1="-6.53392" x2="8.29932" y2="4.77953" gradientUnits="userSpaceOnUse">
<stop stop-color="#32A071"/>
<stop offset="0.069" stop-color="#2DA771"/>
<stop offset="0.476" stop-color="#15CF74"/>
<stop offset="0.801" stop-color="#06E775"/>
<stop offset="1" stop-color="#00F076"/>
</linearGradient>
</defs>
</svg>
