<svg width="350" height="290" viewBox="0 0 350 290" fill="none" xmlns="http://www.w3.org/2000/svg">
<mask id="mask0_4555_33993" style="mask-type:alpha" maskUnits="userSpaceOnUse" x="0" y="0" width="350" height="290">
<rect width="350" height="290" fill="#D9D9D9"/>
</mask>
<g mask="url(#mask0_4555_33993)">
<rect x="151.069" y="0.999878" width="244.398" height="171.901" rx="17.0057" transform="rotate(16 151.069 0.999878)" fill="#EBEBF0"/>
<rect x="254.517" y="155.45" width="80.7186" height="5.22466" rx="1.06286" transform="rotate(16 254.517 155.45)" fill="#D8D8DB"/>
<rect x="250.396" y="169.819" width="80.7186" height="5.22466" rx="1.06286" transform="rotate(16 250.396 169.819)" fill="#D8D8DB"/>
<rect x="246.276" y="184.188" width="80.7186" height="5.22466" rx="1.06286" transform="rotate(16 246.276 184.188)" fill="#D8D8DB"/>
<g filter="url(#filter0_d_4555_33993)">
<rect x="14" y="95.1713" width="244.398" height="171.901" rx="17.0057" fill="white"/>
<rect x="22.9688" y="104.14" width="226.46" height="153.963" rx="12.7543" fill="#FFB700"/>
<path d="M55.0298 258.433C55.4442 237.09 59.2571 187.937 71.1931 162.076C86.113 129.749 80.518 120.424 92.9513 115.451C105.385 110.477 123.498 119.116 119.683 147.091C118.191 158.032 112.637 169.328 110.98 171.4C120.719 169.535 148.652 166.427 157.604 173.887C168.794 183.212 171.903 192.537 170.038 200.618C168.864 205.705 165.818 207.277 163.563 207.817C167.902 207.5 175.381 209.547 176.254 217.403C177.498 228.593 174.389 234.188 164.443 237.296C168.173 237.711 174.389 237.296 174.389 250.351C174.389 260.298 164.443 260.92 160.091 261.541L55.0298 258.433Z" fill="#F6F5F2"/>
<path d="M78.6528 139.074C78.6528 143.425 86.3545 143.997 89.645 138.573C94.4062 130.724 94.9352 121.895 90.7032 120.424" stroke="#FFB700" stroke-width="2.02345" stroke-linecap="round"/>
<path d="M125.899 192.537C121.548 192.33 112.596 193.78 111.601 201.24C110.358 210.565 112.844 215.538 128.386 217.403C143.928 219.268 165.686 209.943 170.659 204.97" stroke="#FFB700" stroke-width="2.02345" stroke-linecap="round"/>
<path d="M127.894 221.087C123.587 220.882 114.725 222.319 113.74 229.709C112.51 238.946 114.971 243.872 130.356 245.72C145.74 247.567 169.466 237.08 174.389 232.153" stroke="#FFB700" stroke-width="2.02345" stroke-linecap="round"/>
<path d="M127.894 249.681C123.586 249.506 114.725 250.728 113.74 257.009" stroke="#FFB700" stroke-width="2.02345" stroke-linecap="round"/>
<path d="M116.169 205.391C115.446 202.692 117.048 199.918 119.746 199.195L122.504 198.456C124.124 198.022 125.788 198.983 126.222 200.602L127.799 206.49C128.233 208.109 127.272 209.774 125.653 210.208L122.895 210.947C120.196 211.67 117.422 210.068 116.699 207.37L116.169 205.391Z" stroke="#FFB700" stroke-width="2.02345"/>
<path d="M118.505 235.07C117.782 232.372 119.383 229.598 122.082 228.875L124.84 228.136C126.46 227.702 128.124 228.663 128.558 230.282L130.135 236.17C130.569 237.789 129.608 239.453 127.989 239.887L125.231 240.626C122.532 241.349 119.758 239.748 119.035 237.049L118.505 235.07Z" stroke="#FFB700" stroke-width="2.02345"/>
</g>
<path d="M201.443 129.179C194.397 128.558 182.794 133.495 180.929 145.307C178.671 159.605 188.526 168.998 202.065 167.065C215.119 165.2 217.706 153.877 216.364 147.171C214.125 135.982 195.848 132.252 190.253 143.442C184.658 154.632 195.407 159.737 202.065 157.74C208.281 155.875 208.903 148.415 204.551 146.55C201.07 145.059 197.714 147.171 197.714 150.28" stroke="#F6F5F2" stroke-width="4" stroke-linecap="round"/>
<path d="M194.185 172.999C193.807 174.807 193.506 176.587 193.203 178.404" stroke="white" stroke-width="4" stroke-linecap="round"/>
<path d="M210.565 170.706C210.981 171.66 211.546 172.557 211.949 173.508C212.163 174.014 212.197 174.519 212.531 174.964" stroke="white" stroke-width="4" stroke-linecap="round"/>
<path d="M179.935 120.911C180.117 121.295 182.818 126.103 182.72 126.152" stroke="white" stroke-width="4" stroke-linecap="round"/>
<path d="M164.865 145.645C166.822 145.742 168.803 145.972 170.762 145.972" stroke="white" stroke-width="4" stroke-linecap="round"/>
<path d="M169.943 166.774C171.291 165.689 172.738 164.648 174.001 163.461C174.205 163.27 174.382 163.17 174.038 163.17" stroke="white" stroke-width="4" stroke-linecap="round"/>
<path d="M214.738 120.232C213.508 121.905 212.691 123.887 211.458 125.531" stroke="white" stroke-width="4" stroke-linecap="round"/>
<path d="M221.298 138.4C221.745 138.206 225.251 136.802 225.083 136.634" stroke="white" stroke-width="4" stroke-linecap="round"/>
<path d="M224.074 159.092C225.838 159.277 227.597 159.597 229.373 159.597" stroke="white" stroke-width="4" stroke-linecap="round"/>
<path d="M176.602 52.4642C176.412 53.125 176.794 53.8142 177.455 54.0036L177.897 54.1304C178.558 54.3198 179.247 53.9378 179.436 53.2771L181.447 46.2645C181.494 46.0993 181.667 46.0038 181.832 46.0512L182.984 46.3815C183.149 46.4289 183.245 46.6012 183.197 46.7664L181.186 53.7789C180.997 54.4396 181.379 55.1289 182.04 55.3183L182.506 55.4521C183.167 55.6416 183.856 55.2595 184.046 54.5988L188.277 39.8436C188.466 39.1829 188.084 38.4936 187.423 38.3042L186.957 38.1704C186.296 37.9809 185.607 38.3629 185.417 39.0237L184.107 43.5948C184.059 43.7599 183.887 43.8554 183.722 43.8081L182.57 43.4778C182.405 43.4304 182.309 43.2581 182.356 43.0929L183.667 38.5218C183.857 37.8611 183.475 37.1719 182.814 36.9824L182.372 36.8557C181.711 36.6662 181.022 37.0483 180.833 37.709L176.602 52.4642ZM163.214 48.3576C163.024 49.0183 163.406 49.7075 164.067 49.897L173.038 52.4693C173.699 52.6588 174.388 52.2767 174.577 51.616L174.629 51.4353C174.819 50.7746 174.437 50.0853 173.776 49.8959L166.792 47.8933C166.627 47.8459 166.531 47.6736 166.579 47.5084L170.194 34.8995C170.384 34.2388 170.001 33.5495 169.341 33.3601L168.849 33.2192C168.189 33.0297 167.5 33.4118 167.31 34.0725L163.214 48.3576Z" fill="#FF7A00"/>
<path d="M191.029 42.0602C190.839 42.7209 191.222 43.4101 191.882 43.5996L197.119 45.1013C196.021 46.6414 194.892 47.4866 191.031 46.5721C190.362 46.4136 189.673 46.7904 189.483 47.4511L189.46 47.5328C189.27 48.1936 189.652 48.8856 190.318 49.0589C194.227 50.0774 196.372 50.0342 197.887 48.566C198.35 50.609 200.011 51.7414 204.043 52.9958C204.699 53.2 205.391 52.8161 205.58 52.1554L205.604 52.0737C205.793 51.4129 205.409 50.7285 204.758 50.5064C201.136 49.2696 200.51 47.9225 200.373 46.0343L205.61 47.536C206.271 47.7255 206.96 47.3435 207.15 46.6827L207.201 46.502C207.391 45.8413 207.009 45.1521 206.348 44.9626L200.963 43.4185L201.26 42.3835C201.355 42.0532 201.164 41.7085 200.833 41.6138L199.096 41.1158C198.766 41.021 198.421 41.212 198.327 41.5424L198.03 42.5774L192.62 41.0262C191.959 40.8367 191.27 41.2187 191.081 41.8795L191.029 42.0602ZM187.247 55.249C187.058 55.9097 187.44 56.599 188.1 56.7884L207.227 62.2728C207.887 62.4622 208.577 62.0802 208.766 61.4195L208.818 61.2388C209.007 60.578 208.625 59.8888 207.965 59.6993L190.825 54.7847C190.66 54.7373 190.564 54.565 190.612 54.3998L191.145 52.5383C191.335 51.8775 190.953 51.1883 190.292 50.9989L189.801 50.858C189.14 50.6685 188.451 51.0506 188.262 51.7113L187.247 55.249ZM208.095 52.8763C207.905 53.5371 208.287 54.2263 208.948 54.4158L209.439 54.5566C210.1 54.7461 210.789 54.364 210.979 53.7033L212.926 46.9117C213.116 46.251 212.734 45.5617 212.073 45.3723L211.582 45.2314C210.921 45.042 210.232 45.424 210.042 46.0847L208.095 52.8763Z" fill="#FF7A00"/>
<path d="M211.749 62.2747C211.559 62.9354 211.941 63.6247 212.602 63.8141L232.246 69.4469C232.907 69.6364 233.596 69.2543 233.785 68.5936L233.851 68.3634C234.041 67.7027 233.659 67.0135 232.998 66.824L224.929 64.5104C224.764 64.463 224.669 64.2907 224.716 64.1255L225.59 61.0762C225.78 60.4155 225.398 59.7263 224.737 59.5368L224.246 59.396C223.585 59.2065 222.896 59.5885 222.706 60.2493L221.832 63.2986C221.785 63.4637 221.612 63.5593 221.447 63.5119L213.354 61.1912C212.693 61.0017 212.004 61.3838 211.815 62.0445L211.749 62.2747ZM214.286 54.357C214.096 55.0178 214.479 55.7084 215.142 55.8931C220.225 57.3107 223.246 57.7983 225.552 55.7223C226.407 58.7045 229.206 59.8861 234.265 61.3766C234.924 61.5709 235.615 61.1882 235.805 60.5275L235.864 60.3221C236.053 59.6613 235.669 58.9741 235.013 58.7676C230.035 57.1992 227.254 55.2731 228.341 51.4832C228.514 50.8819 228.166 50.2547 227.565 50.0823L226.858 49.8797C226.257 49.7073 225.63 50.055 225.457 50.6563C224.37 54.4463 220.949 54.594 215.889 53.284C215.224 53.1117 214.534 53.4909 214.345 54.1516L214.286 54.357Z" fill="#FF7A00"/>
<path d="M341.283 141.882C324.081 159.084 297.038 158.546 280.027 141.534C263.015 124.523 262.478 97.48 279.679 80.2782C296.881 63.0765 323.924 63.6143 340.936 80.6256C357.947 97.637 358.485 124.68 341.283 141.882Z" fill="white"/>
<path opacity="0.2" d="M327.804 140.617C322.298 138.784 319.318 132.841 321.149 127.342C322.98 121.844 328.927 118.872 334.433 120.705C339.94 122.538 342.919 128.482 341.089 133.98C339.258 139.479 333.311 142.45 327.804 140.617Z" fill="#FFB700"/>
<path opacity="0.2" d="M280.118 124.741C274.612 122.908 271.632 116.965 273.463 111.466C275.294 105.968 281.241 102.996 286.747 104.829C292.254 106.663 295.233 112.606 293.403 118.105C291.572 123.603 285.625 126.574 280.118 124.741Z" fill="#FFB700"/>
<path d="M311.375 125.491C309.97 126.192 308.2 126.388 306.425 125.93C303.778 125.241 301.869 123.273 301.444 121.074" stroke="#251700" stroke-width="2.86957" stroke-linecap="round"/>
<path d="M330.232 101.795C335.254 103.363 337.033 103.23 337.565 101.186C338.098 99.1428 337.015 97.4056 331.392 95.6371C325.756 93.8642 322.545 95.268 322.539 98.0047C322.999 100.941 325.209 100.226 330.232 101.795Z" fill="#FFB700"/>
<path d="M308.952 93.4814C310.587 91.2868 308.846 88.2346 303.285 86.2795C297.71 84.32 295.816 85.0663 295.017 87.021C294.218 88.9758 295.562 90.1487 300.523 91.9038C305.483 93.6589 306.837 95.5605 308.952 93.4814Z" fill="#FFB700"/>
<path d="M320.844 128.478C313.996 126.198 310.291 118.806 312.567 111.968C314.844 105.13 322.241 101.435 329.088 103.715C335.936 105.994 339.642 113.386 337.365 120.224C335.089 127.062 327.692 130.758 320.844 128.478Z" fill="white"/>
<path d="M318.525 124.803C313.453 123.115 310.709 117.641 312.395 112.577C314.081 107.512 319.559 104.776 324.63 106.464C329.701 108.152 332.446 113.626 330.76 118.691C329.074 123.755 323.596 126.492 318.525 124.803Z" fill="#3C2400"/>
<path d="M326.517 125.11C324.998 124.604 324.177 122.965 324.681 121.449C325.186 119.933 326.826 119.113 328.345 119.619C329.863 120.124 330.685 121.763 330.18 123.28C329.675 124.796 328.035 125.615 326.517 125.11Z" fill="white"/>
<path d="M321.124 127.637C314.741 125.512 311.286 118.622 313.408 112.248C315.531 105.873 322.426 102.428 328.809 104.554C335.192 106.679 338.647 113.569 336.525 119.943C334.402 126.318 327.507 129.763 321.124 127.637Z" stroke="#251700" stroke-width="2.86957"/>
<path d="M291.228 118.618C284.381 116.338 280.675 108.946 282.952 102.108C285.228 95.2701 292.625 91.5748 299.473 93.8545C306.32 96.1343 310.026 103.526 307.749 110.364C305.473 117.202 298.076 120.898 291.228 118.618Z" fill="white"/>
<path d="M288.909 114.944C283.838 113.256 281.094 107.782 282.78 102.717C284.466 97.6532 289.944 94.9165 295.015 96.6048C300.086 98.2932 302.83 103.767 301.144 108.831C299.459 113.896 293.981 116.632 288.909 114.944Z" fill="#3C2400"/>
<path d="M296.901 115.251C295.383 114.746 294.561 113.107 295.066 111.59C295.571 110.074 297.211 109.255 298.729 109.76C300.248 110.266 301.069 111.905 300.564 113.421C300.06 114.937 298.419 115.757 296.901 115.251Z" fill="white"/>
<path d="M291.509 117.778C285.125 115.653 281.671 108.763 283.793 102.388C285.915 96.0136 292.811 92.5689 299.194 94.694C305.577 96.8192 309.032 103.71 306.909 110.084C304.787 116.458 297.892 119.903 291.509 117.778Z" stroke="#251700" stroke-width="2.86957"/>
</g>
<defs>
<filter id="filter0_d_4555_33993" x="11.8743" y="93.0456" width="265.655" height="193.158" filterUnits="userSpaceOnUse" color-interpolation-filters="sRGB">
<feFlood flood-opacity="0" result="BackgroundImageFix"/>
<feColorMatrix in="SourceAlpha" type="matrix" values="0 0 0 0 0 0 0 0 0 0 0 0 0 0 0 0 0 0 127 0" result="hardAlpha"/>
<feOffset dx="8.50286" dy="8.50286"/>
<feGaussianBlur stdDeviation="5.31429"/>
<feComposite in2="hardAlpha" operator="out"/>
<feColorMatrix type="matrix" values="0 0 0 0 0.647059 0 0 0 0 0.556863 0 0 0 0 0.47451 0 0 0 0.2 0"/>
<feBlend mode="normal" in2="BackgroundImageFix" result="effect1_dropShadow_4555_33993"/>
<feBlend mode="normal" in="SourceGraphic" in2="effect1_dropShadow_4555_33993" result="shape"/>
</filter>
</defs>
</svg>
