<svg width="18" height="18" viewBox="0 0 18 18" fill="none" xmlns="http://www.w3.org/2000/svg">
<path d="M9.40491 0.812913C9.14172 0.729029 8.85828 0.729029 8.59509 0.812913L2.40759 2.78496C1.8671 2.95722 1.5 3.45141 1.5 4.0111V7.71398C1.5 12.2757 4.3281 15.6038 8.55075 17.1696C8.83998 17.2768 9.16001 17.2768 9.44925 17.1696C13.6719 15.6038 16.5 12.2757 16.5 7.71398V4.01131C16.5 3.4518 16.1331 2.95728 15.5924 2.78496L9.40491 0.812913Z" fill="#6B9AFF"/>
<path d="M11.5438 6.23518C11.6714 6.11306 11.8412 6.04555 12.0173 6.04689C12.1934 6.04823 12.3622 6.11832 12.4879 6.24236C12.6136 6.3664 12.6865 6.5347 12.6912 6.71173C12.6958 6.88877 12.6319 7.0607 12.5129 7.19125L8.89928 11.7349C8.83714 11.8022 8.76214 11.8561 8.67878 11.8936C8.59541 11.9311 8.50538 11.9513 8.41407 11.953C8.32276 11.9547 8.23205 11.9379 8.14736 11.9035C8.06266 11.8692 7.98573 11.818 7.92116 11.7531L5.52478 9.34377C5.45805 9.28125 5.40452 9.20586 5.3674 9.12209C5.33027 9.03832 5.31031 8.94789 5.3087 8.8562C5.30709 8.7645 5.32387 8.67342 5.35803 8.58839C5.39219 8.50336 5.44304 8.42611 5.50754 8.36126C5.57204 8.29642 5.64887 8.24529 5.73345 8.21095C5.81803 8.1766 5.90862 8.15973 5.99982 8.16135C6.09102 8.16297 6.18097 8.18304 6.26429 8.22036C6.34761 8.25769 6.4226 8.3115 6.48478 8.3786L8.38124 10.2844L11.5266 6.25521C11.5323 6.2482 11.5383 6.24151 11.5447 6.23518H11.5438Z" fill="white"/>
</svg>
