<svg width="130" height="20" viewBox="0 0 130 20" fill="none" xmlns="http://www.w3.org/2000/svg">
<path d="M4.00438 10.375C4.49266 10.375 4.98094 10.2969 5.46922 10.1211C5.93797 9.96484 6.38719 9.71094 6.77782 9.39844C7.16844 9.08594 7.48094 8.67578 7.75438 8.20703C8.00828 7.73828 8.16453 7.21094 8.22313 6.60547C8.26219 6.01953 8.2036 5.47266 8.02781 5.00391C7.85203 4.53516 7.59813 4.14453 7.28563 3.8125C6.9536 3.5 6.56297 3.24609 6.11375 3.08984C5.66453 2.93359 5.19578 2.83594 4.68797 2.83594C4.18016 2.83594 3.67235 2.93359 3.2036 3.10938C2.71532 3.28516 2.28563 3.53906 1.895 3.85156C1.50438 4.16406 1.19188 4.55469 0.937972 5.02344C0.684065 5.49219 0.527815 6.01953 0.488753 6.60547C0.430159 7.19141 0.469222 7.71875 0.625472 8.1875C0.76219 8.65625 0.977034 9.04688 1.28953 9.35938C1.60203 9.69141 1.97313 9.94531 2.44188 10.1211C2.8911 10.2969 3.41844 10.375 4.00438 10.375ZM4.47313 4.51562C4.82469 4.51562 5.11766 4.73047 5.31297 5.12109C5.50828 5.51172 5.60594 6.05859 5.58641 6.72266C5.56688 7.30859 5.44969 7.79688 5.21532 8.1875C4.98094 8.57812 4.64891 8.77344 4.23875 8.77344C3.92625 8.77344 3.65282 8.61719 3.41844 8.30469C3.16453 7.99219 3.04735 7.46484 3.08641 6.72266C3.10594 5.98047 3.26219 5.43359 3.53563 5.0625C3.80907 4.71094 4.12157 4.51562 4.47313 4.51562ZM10.3716 2.77734L10.5669 11.7227C10.5669 11.9375 10.7036 12.0742 10.977 12.1328C11.2505 12.2109 11.5434 12.2109 11.895 12.1719C12.188 12.1523 12.4614 12.0938 12.7348 11.9961C13.0083 11.8984 13.145 11.7812 13.145 11.6445L12.9888 2.62109C12.9888 2.42578 12.8325 2.30859 12.5395 2.25C12.2466 2.19141 11.9341 2.17188 11.6216 2.19141C11.2895 2.23047 10.9966 2.30859 10.7427 2.40625C10.4888 2.52344 10.3716 2.64062 10.3716 2.77734ZM8.06688 17.3867H8.04735L9.33641 17.3281L13.0278 17.1133C13.3208 17.1133 13.5552 17.0156 13.7114 16.8398C13.8677 16.6641 13.9653 16.4688 13.9653 16.2734C13.9653 16.0781 13.8872 15.8828 13.7309 15.7266C13.5747 15.5703 13.3208 15.4922 13.0083 15.5117L9.04344 15.668L9.23875 12.0352C9.23875 11.8594 9.12157 11.7227 8.84813 11.6055C8.57469 11.4883 8.28172 11.4297 7.96922 11.3906C7.79344 11.3906 7.61766 11.4102 7.46141 11.4102C7.30516 11.4297 7.14891 11.4492 7.03172 11.4883C6.895 11.5273 6.77782 11.5859 6.69969 11.6641C6.62157 11.7422 6.5825 11.8203 6.5825 11.918L6.30907 16.4492C6.28953 16.6055 6.3286 16.7617 6.44578 16.8789C6.54344 17.0156 6.68016 17.1133 6.85594 17.1914C7.01219 17.2695 7.2075 17.3281 7.42235 17.3672C7.63719 17.4062 7.85203 17.4258 8.06688 17.3867Z" fill="#A58E79"/>
<path d="M21.895 4.33984L23.438 3.01172H23.4184C23.5161 2.93359 23.5552 2.79688 23.5356 2.60156C23.5161 2.42578 23.4575 2.25 23.3598 2.05469C23.2427 1.87891 23.1059 1.72266 22.9106 1.58594C22.7153 1.44922 22.5005 1.37109 22.2856 1.37109L16.7973 1.72266C16.5825 1.76172 16.4067 1.85938 16.2895 2.03516C16.1723 2.21094 16.1138 2.40625 16.1528 2.62109C16.1723 2.83594 16.27 3.03125 16.4458 3.1875C16.602 3.36328 16.8559 3.44141 17.2075 3.40234L20.5278 3.03125L16.4263 6.35156C16.3286 6.44922 16.3091 6.58594 16.3481 6.74219C16.3872 6.91797 16.4848 7.07422 16.6411 7.21094C16.8559 7.44531 17.1098 7.62109 17.3833 7.71875C17.6567 7.83594 17.8911 7.77734 18.1059 7.54297C18.4575 7.25 18.8286 6.9375 19.2192 6.60547C19.6098 6.29297 20.0005 5.96094 20.4106 5.60938C20.7622 5.98047 21.0747 6.27344 21.3872 6.50781C21.6802 6.74219 21.9927 6.95703 22.3442 7.15234C22.5981 7.34766 22.8716 7.38672 23.145 7.26953C23.4184 7.17188 23.6723 6.99609 23.8677 6.74219C23.9848 6.58594 24.0434 6.42969 24.063 6.25391C24.063 6.07812 24.0044 5.94141 23.8481 5.82422C23.5356 5.66797 23.1841 5.45312 22.8325 5.17969C22.4809 4.92578 22.1684 4.65234 21.895 4.33984ZM15.7817 9.53516C15.5083 9.57422 15.3325 9.67188 15.2153 9.84766C15.0981 10.043 15.0591 10.2383 15.0981 10.4336C15.0981 10.6484 15.1763 10.8438 15.3325 11.0195C15.4888 11.2148 15.7036 11.293 15.9966 11.2539L23.9848 11.0195C24.2973 11.0195 24.5122 10.9219 24.6684 10.7266C24.8247 10.5508 24.9028 10.3555 24.9028 10.1602C24.8833 9.96484 24.8052 9.76953 24.6489 9.59375C24.4927 9.4375 24.2778 9.33984 24.0044 9.33984L15.7817 9.53516ZM19.9223 19.0859C20.4106 19.0859 20.8989 19.0273 21.3677 18.8906C21.8364 18.7539 22.2856 18.5586 22.6763 18.2852C23.0669 18.0117 23.3794 17.6797 23.6528 17.2891C23.9067 16.8984 24.063 16.4492 24.1411 15.9414C24.1997 15.4727 24.1411 15.0625 23.9848 14.6719C23.8286 14.2812 23.5747 13.9492 23.2622 13.6758C22.9497 13.4023 22.5591 13.1875 22.0903 13.0312C21.6216 12.875 21.1333 12.7969 20.6059 12.7969C20.0981 12.7969 19.5903 12.875 19.1216 13.0117C18.6528 13.1484 18.2231 13.3438 17.8325 13.6172C17.4419 13.8906 17.1294 14.2031 16.8755 14.5938C16.6216 14.9844 16.4653 15.4336 16.4067 15.9414C16.2895 16.8789 16.5434 17.6406 17.1684 18.2266C17.7934 18.8125 18.7114 19.0859 19.9223 19.0859ZM20.3911 14.4766C20.7427 14.4766 21.0356 14.6328 21.2309 14.9062C21.4263 15.1992 21.5239 15.5898 21.5044 16.0586C21.4653 16.4492 21.3481 16.7812 21.1138 17.0547C20.8794 17.3477 20.5669 17.4844 20.1567 17.4844C20.0005 17.4844 19.8638 17.4648 19.727 17.4258C19.5708 17.3867 19.4536 17.3086 19.3364 17.1914C19.2192 17.0742 19.1411 16.9375 19.0825 16.7422C19.0044 16.5664 18.9848 16.332 19.0044 16.0586C19.0239 15.5117 19.1802 15.1016 19.4536 14.8477C19.727 14.6133 20.0395 14.4766 20.3911 14.4766Z" fill="#A58E79"/>
<path d="M29.8247 12.4258C30.313 12.4258 30.8013 12.3281 31.2895 12.1328C31.7778 11.9375 32.227 11.6445 32.6177 11.2539C33.0083 10.8633 33.3208 10.3945 33.5942 9.84766C33.8481 9.30078 34.0044 8.67578 34.0434 7.97266C34.0825 7.26953 34.0044 6.64453 33.8481 6.09766C33.6723 5.55078 33.4184 5.08203 33.1059 4.69141C32.7739 4.32031 32.3833 4.02734 31.9341 3.83203C31.4848 3.63672 31.0161 3.51953 30.5083 3.51953C30.0005 3.51953 29.4927 3.63672 29.0239 3.83203C28.5356 4.04688 28.1059 4.33984 27.7153 4.73047C27.3247 5.12109 26.9927 5.58984 26.7388 6.13672C26.4848 6.68359 26.3481 7.30859 26.3091 7.97266C26.27 8.65625 26.3091 9.26172 26.4458 9.80859C26.5825 10.3555 26.7973 10.8242 27.1098 11.2148C27.4223 11.6055 27.7934 11.918 28.2622 12.1133C28.7114 12.3281 29.2388 12.4258 29.8247 12.4258ZM30.2934 5.19922C30.645 5.19922 30.938 5.47266 31.1333 6C31.3286 6.52734 31.4067 7.23047 31.4067 8.08984C31.4067 8.48047 31.3677 8.85156 31.3091 9.18359C31.2309 9.51562 31.1528 9.80859 31.0356 10.043C30.9184 10.2773 30.7622 10.4727 30.6059 10.6094C30.4497 10.7656 30.2544 10.8242 30.0591 10.8242C29.9028 10.8242 29.7661 10.7852 29.6294 10.668C29.4731 10.5508 29.3559 10.3945 29.2388 10.1602C29.1216 9.92578 29.0434 9.65234 28.9848 9.30078C28.9067 8.96875 28.8872 8.55859 28.9067 8.08984C28.9263 7.15234 29.0825 6.44922 29.3559 5.94141C29.6294 5.45312 29.9419 5.19922 30.2934 5.19922ZM35.8013 2.83594L35.9966 14.8477C35.9966 15.0625 36.1333 15.1992 36.4067 15.2578C36.6802 15.3359 36.9731 15.3359 37.3247 15.2969C37.6177 15.2773 37.8911 15.2188 38.1645 15.1211C38.438 15.0234 38.5747 14.9062 38.5747 14.7695L38.4184 2.67969C38.4184 2.48438 38.2622 2.36719 37.9692 2.30859C37.6763 2.25 37.3638 2.23047 37.0513 2.25C36.7192 2.28906 36.4263 2.36719 36.1723 2.46484C35.9184 2.58203 35.8013 2.69922 35.8013 2.83594Z" fill="#A58E79"/>
<path d="M53.7661 6.29297L51.7934 6.44922C51.5591 6.48828 51.4028 6.56641 51.2856 6.66406C51.2466 6.46875 51.188 6.29297 51.1489 6.09766C50.9731 5.55078 50.7192 5.08203 50.4067 4.69141C50.0747 4.32031 49.6841 4.02734 49.2348 3.83203C48.7856 3.63672 48.3169 3.51953 47.8091 3.51953C47.3013 3.51953 46.7934 3.63672 46.3247 3.83203C45.8364 4.04688 45.4067 4.33984 45.0161 4.73047C44.6255 5.12109 44.2934 5.58984 44.0395 6.13672C43.7856 6.68359 43.6489 7.30859 43.6098 7.97266C43.5708 8.65625 43.6098 9.26172 43.7466 9.80859C43.8833 10.3555 44.0981 10.8242 44.4106 11.2148C44.7231 11.6055 45.0942 11.918 45.563 12.1133C46.0122 12.3281 46.5395 12.4258 47.1255 12.4258C47.6138 12.4258 48.102 12.3281 48.5903 12.1328C49.0786 11.9375 49.5278 11.6445 49.9184 11.2539C50.3091 10.8633 50.6216 10.3945 50.895 9.84766C51.1294 9.33984 51.2856 8.73438 51.3442 8.05078C51.5395 8.22656 51.7934 8.28516 52.1059 8.24609L53.8052 8.10938L53.9614 14.8867C53.9809 15.082 54.1177 15.2383 54.3911 15.3164C54.6645 15.4141 54.9575 15.4336 55.2895 15.3945C55.5825 15.375 55.8559 15.3164 56.1294 15.1992C56.4028 15.1016 56.5395 14.9844 56.5395 14.8477L56.3442 2.81641C56.3442 2.66016 56.188 2.54297 55.9145 2.48438C55.6216 2.42578 55.3091 2.40625 54.977 2.40625C54.645 2.44531 54.352 2.52344 54.0981 2.62109C53.8442 2.73828 53.727 2.85547 53.727 3.01172L53.7661 6.29297ZM47.5942 5.19922C47.9458 5.19922 48.2388 5.47266 48.4341 6C48.6294 6.52734 48.7075 7.23047 48.7075 8.08984C48.7075 8.48047 48.6684 8.85156 48.6098 9.18359C48.5317 9.51562 48.4536 9.80859 48.3364 10.043C48.2192 10.2773 48.063 10.4727 47.9067 10.6094C47.7505 10.7656 47.5552 10.8242 47.3598 10.8242C47.2036 10.8242 47.0669 10.7852 46.9302 10.668C46.7739 10.5508 46.6567 10.3945 46.5395 10.1602C46.4223 9.92578 46.3442 9.65234 46.2856 9.30078C46.2075 8.96875 46.188 8.55859 46.2075 8.08984C46.227 7.15234 46.3833 6.44922 46.6567 5.94141C46.9302 5.45312 47.2427 5.19922 47.5942 5.19922Z" fill="#A58E79"/>
<path d="M67.8872 9.06641L65.895 9.26172C65.5825 9.30078 65.3677 9.39844 65.2505 9.57422C65.1333 9.75 65.0747 9.94531 65.1138 10.1602C65.1138 10.375 65.2309 10.5703 65.4263 10.7266C65.6216 10.9023 65.8755 10.9805 66.188 10.9414L67.9263 10.8242L68.0044 14.8867C68.0239 15.082 68.1606 15.2383 68.4341 15.3359C68.7075 15.4336 69.0005 15.4531 69.3325 15.4141C69.6255 15.3945 69.8989 15.3359 70.1723 15.2188C70.4458 15.1016 70.5825 14.9844 70.5825 14.8477L70.3872 2.81641C70.3872 2.66016 70.2309 2.54297 69.9575 2.48438C69.6645 2.42578 69.352 2.40625 69.02 2.40625C68.688 2.44531 68.395 2.52344 68.1411 2.62109C67.8872 2.73828 67.77 2.85547 67.77 3.01172L67.8091 5.49219L65.9145 5.66797C65.602 5.6875 65.3677 5.78516 65.2505 5.96094C65.2505 5.98047 65.2309 6 65.2309 6L65.3872 4.37891C65.3872 4.26172 65.3677 4.125 65.2895 3.96875C65.2114 3.8125 65.0552 3.67578 64.8403 3.51953C64.6841 3.40234 64.5083 3.34375 64.2739 3.32422C64.0395 3.30469 63.8247 3.30469 63.6098 3.32422C62.9067 3.36328 62.3208 3.40234 61.8911 3.42188C61.4419 3.44141 61.0708 3.46094 60.7973 3.46094C60.5239 3.46094 60.2895 3.48047 60.1138 3.48047C59.938 3.48047 59.7817 3.48047 59.6255 3.48047C59.2934 3.5 59.0591 3.59766 58.9028 3.79297C58.7466 3.98828 58.688 4.18359 58.688 4.39844C58.688 4.63281 58.7661 4.84766 58.9223 5.02344C59.0786 5.19922 59.3325 5.27734 59.6645 5.23828L62.77 5.12109L62.5356 6.87891L59.1958 7.62109C58.8247 7.67969 58.4927 7.81641 58.2192 8.03125C57.9458 8.26562 57.8286 8.57812 57.9067 8.96875L58.5317 12.6211C58.6098 12.9727 58.8052 13.2266 59.1177 13.3828C59.4106 13.5586 59.7622 13.6367 60.1919 13.6367C60.5434 13.6367 60.9341 13.6367 61.3638 13.5977C61.7934 13.5781 62.2036 13.5391 62.6333 13.5C63.063 13.4609 63.4731 13.4219 63.8638 13.3633C64.2544 13.3242 64.6255 13.2656 64.938 13.1875C65.1723 13.1289 65.3481 12.9922 65.4458 12.7969C65.5239 12.6016 65.5825 12.4453 65.5825 12.2891C65.5825 12.0156 65.4848 11.8008 65.2895 11.625C65.0942 11.4688 64.8403 11.4102 64.5083 11.4688H64.5278L60.9145 11.8398L60.4653 9.30078L61.2466 9.125C61.5395 9.06641 61.8325 9.00781 62.1255 8.92969C62.4184 8.85156 62.7114 8.79297 62.9848 8.71484C63.2583 8.65625 63.4927 8.59766 63.727 8.51953C64.1177 8.42188 64.4302 8.30469 64.6645 8.14844C64.8989 8.01172 65.0356 7.81641 65.0747 7.54297L65.1528 6.76172C65.1919 6.89844 65.2895 7.01562 65.4263 7.13281C65.6216 7.30859 65.8755 7.38672 66.188 7.34766L67.8481 7.23047L67.8872 9.06641Z" fill="#A58E79"/>
<path d="M75.9341 9.00781C76.4223 9.00781 76.9106 8.92969 77.3989 8.77344C77.8677 8.61719 78.3169 8.40234 78.7075 8.08984C79.0981 7.79688 79.4106 7.42578 79.6841 6.97656C79.938 6.52734 80.0942 6.01953 80.1528 5.43359C80.1919 4.84766 80.1333 4.33984 79.977 3.89062C79.8013 3.46094 79.5473 3.08984 79.2153 2.77734C78.8833 2.48438 78.4927 2.25 78.0434 2.09375C77.5942 1.9375 77.1255 1.85938 76.6177 1.85938C76.1098 1.85938 75.602 1.95703 75.1333 2.11328C74.645 2.26953 74.2153 2.50391 73.8247 2.81641C73.4341 3.12891 73.1216 3.5 72.8677 3.92969C72.6138 4.37891 72.4575 4.88672 72.4184 5.43359C72.3013 6.56641 72.5747 7.44531 73.1997 8.07031C73.8247 8.69531 74.7427 9.00781 75.9341 9.00781ZM76.4028 3.53906C76.7544 3.53906 77.0473 3.73438 77.2427 4.08594C77.438 4.4375 77.5161 4.92578 77.5161 5.55078C77.4966 6.09766 77.3794 6.52734 77.145 6.87891C76.9106 7.23047 76.5786 7.40625 76.1684 7.40625C76.0122 7.40625 75.8755 7.38672 75.7388 7.30859C75.5825 7.25 75.4653 7.15234 75.3481 6.99609C75.2309 6.85938 75.1528 6.66406 75.0942 6.42969C75.0161 6.19531 74.9966 5.90234 75.0161 5.55078C75.0356 4.86719 75.1919 4.35938 75.4653 4.02734C75.7388 3.71484 76.0513 3.53906 76.4028 3.53906ZM81.8911 13.7539L81.9302 14.9258C81.9302 15.1406 82.0669 15.2773 82.3403 15.3359C82.6138 15.4141 82.9263 15.4336 83.2973 15.3945C83.5903 15.3555 83.8638 15.2969 84.1177 15.1992C84.3716 15.1211 84.5083 15.0039 84.5083 14.8477L84.3716 2.85547C84.3716 2.69922 84.2153 2.58203 83.9419 2.50391C83.6684 2.42578 83.3559 2.40625 83.0434 2.40625C82.6919 2.44531 82.3989 2.50391 82.1645 2.60156C81.9106 2.69922 81.7934 2.81641 81.7934 2.97266L81.852 12.2305L79.0981 12.3086C78.8833 12.3672 78.727 12.4648 78.6098 12.6211C78.4927 12.7773 78.4536 12.9531 78.4927 13.1289C78.4927 13.3242 78.5903 13.5 78.7661 13.6562C78.9223 13.8125 79.1567 13.8711 79.4497 13.832L81.8911 13.7539ZM80.4263 9.61328L72.5942 9.84766C72.3208 9.88672 72.1255 9.98438 72.0083 10.1406C71.8911 10.2969 71.852 10.4727 71.8911 10.6289C71.9106 10.8242 72.0083 10.9805 72.1841 11.1367C72.3598 11.293 72.5747 11.3711 72.8091 11.332L74.8989 11.293L74.4888 14.8477C74.4497 15.0039 74.5669 15.1406 74.8208 15.2383C75.0747 15.3359 75.3677 15.3945 75.6802 15.3945C75.9927 15.3945 76.2856 15.3555 76.5591 15.2773C76.8325 15.1992 76.9692 15.082 76.9888 14.8867L77.438 11.2344L80.3872 11.1367C80.6802 11.1172 80.895 11.0391 81.0513 10.8828C81.2075 10.7266 81.2856 10.5703 81.2856 10.375C81.2856 10.1797 81.2075 10.0039 81.0708 9.84766C80.9145 9.69141 80.6997 9.61328 80.4263 9.61328Z" fill="#A58E79"/>
<path d="M86.7348 14.2422C86.7348 14.418 86.7739 14.5742 86.852 14.7305C86.9302 14.8867 87.0473 15.0039 87.2036 15.1211C87.3403 15.2383 87.4966 15.3359 87.6919 15.3945C87.8677 15.4727 88.0434 15.4922 88.2388 15.4922C88.6489 15.4922 89.0005 15.375 89.313 15.1211C89.6059 14.8867 89.7622 14.5547 89.7622 14.1445C89.7622 13.793 89.6059 13.5195 89.2934 13.2852C88.9809 13.0703 88.6294 12.9531 88.2583 12.9531C87.8677 12.9531 87.5161 13.0703 87.2036 13.2852C86.8911 13.5195 86.7348 13.832 86.7348 14.2422ZM85.602 3.57812C85.4848 3.73438 85.4458 3.94922 85.5044 4.18359C85.5434 4.4375 85.6606 4.65234 85.8364 4.82812C85.9927 5.02344 86.2075 5.14062 86.4614 5.17969C86.7153 5.21875 86.9692 5.12109 87.2427 4.86719C87.3598 4.75 87.5552 4.63281 87.8286 4.49609C88.0825 4.37891 88.2973 4.30078 88.4731 4.30078C88.727 4.30078 88.9419 4.41797 89.1372 4.63281C89.313 4.84766 89.4106 5.21875 89.4106 5.72656C89.4106 5.88281 89.352 6.07812 89.2739 6.27344C89.1958 6.46875 89.0786 6.68359 88.9614 6.89844C88.8442 7.11328 88.688 7.32812 88.5317 7.5625C88.3755 7.79688 88.2192 8.01172 88.063 8.22656C87.9848 8.34375 87.9067 8.46094 87.8286 8.57812C87.7309 8.69531 87.6528 8.8125 87.5747 8.91016C87.3403 9.26172 87.2036 9.65234 87.1255 10.082C87.0473 10.5117 87.0083 10.9023 86.9888 11.2344C86.9692 11.4102 86.9888 11.5664 87.0669 11.6836C87.1255 11.8008 87.2231 11.918 87.3403 11.9961C87.4575 12.0742 87.5747 12.1328 87.7309 12.1719C87.8872 12.2109 88.0434 12.2305 88.1997 12.2305C88.4341 12.2305 88.6489 12.1914 88.8442 12.0938C89.02 12.0156 89.1372 11.8789 89.1958 11.7031C89.2153 11.6641 89.2348 11.5664 89.2348 11.4492C89.2348 11.332 89.2544 11.2539 89.2739 11.1758C89.313 10.9219 89.352 10.6484 89.4106 10.375C89.4692 10.1016 89.5669 9.88672 89.7231 9.69141H89.7036L89.8794 9.4375C90.0942 9.125 90.3091 8.8125 90.5434 8.48047C90.7583 8.16797 90.9536 7.83594 91.1489 7.52344C91.3247 7.21094 91.4809 6.87891 91.5981 6.56641C91.7153 6.25391 91.7739 5.96094 91.7739 5.6875C91.7739 4.61328 91.4809 3.79297 90.9145 3.22656C90.3481 2.67969 89.5278 2.38672 88.4536 2.38672C87.9067 2.38672 87.3598 2.50391 86.8325 2.71875C86.3052 2.95312 85.895 3.22656 85.602 3.57812Z" fill="#A58E79"/>
<path d="M97.2764 8.77138C96.7456 8.61874 96.1916 8.92528 96.039 9.45605C95.8863 9.98683 96.1929 10.5408 96.7236 10.6935L97.2764 8.77138ZM112.508 8.29071L112.103 7.3764L112.508 8.29071ZM110.372 1.91397L110.777 2.82828L110.372 1.91397ZM108.994 6.46744L108.24 7.12449L108.994 6.46744ZM128.325 10.7317C128.877 10.7109 129.307 10.2466 129.286 9.69469C129.265 9.14279 128.801 8.7123 128.249 8.73314L128.325 10.7317ZM124.763 12.7583C124.384 13.1597 124.402 13.7926 124.803 14.172C125.204 14.5514 125.837 14.5336 126.217 14.1323L124.763 12.7583ZM129 9.73243L129.727 10.4194C130.084 10.0418 130.092 9.45372 129.746 9.06621L129 9.73243ZM126.801 5.76943C126.433 5.35756 125.8 5.32195 125.389 5.6899C124.977 6.05784 124.941 6.69001 125.309 7.10187L126.801 5.76943ZM96.7236 10.6935C102.569 12.3746 108.897 10.9537 112.766 9.26948L111.968 7.43569C108.353 9.00929 102.523 10.2802 97.2764 8.77138L96.7236 10.6935ZM112.766 9.26948C112.816 9.24793 112.865 9.22644 112.913 9.20501L112.103 7.3764C112.059 7.3961 112.014 7.41587 111.968 7.43569L112.766 9.26948ZM112.913 9.20501C114.869 8.33862 116.168 7.28376 116.823 6.10905C117.506 4.88492 117.437 3.61241 116.806 2.58133C115.609 0.624555 112.638 -0.183513 109.967 0.999662L110.777 2.82828C112.735 1.96103 114.535 2.70099 115.1 3.62502C115.35 4.03433 115.411 4.53542 115.076 5.13488C114.714 5.78374 113.85 6.60245 112.103 7.3764L112.913 9.20501ZM109.967 0.999662C108.709 1.55709 107.772 2.49156 107.415 3.6496C107.049 4.83524 107.342 6.0939 108.24 7.12449L109.748 5.8104C109.258 5.24837 109.184 4.69836 109.326 4.23946C109.476 3.75297 109.922 3.20701 110.777 2.82828L109.967 0.999662ZM108.24 7.12449C109.072 8.07826 110.433 8.78 112.06 9.30439L112.674 7.40078C111.167 6.91532 110.222 6.35418 109.748 5.8104L108.24 7.12449ZM112.06 9.30439C115.763 10.4975 121.543 10.9879 128.325 10.7317L128.249 8.73314C121.545 8.98635 116.043 8.48644 112.674 7.40078L112.06 9.30439ZM126.217 14.1323L129.727 10.4194L128.273 9.04545L124.763 12.7583L126.217 14.1323ZM129.746 9.06621L126.801 5.76943L125.309 7.10187L128.254 10.3987L129.746 9.06621Z" fill="#A58E79"/>
</svg>
