<svg width="16" height="16" viewBox="0 0 16 16" fill="none" xmlns="http://www.w3.org/2000/svg">
<path d="M11.0149 4.72317C11.1661 4.57845 11.3673 4.49844 11.5761 4.50002C11.7848 4.50161 11.9848 4.58467 12.1338 4.73169C12.2828 4.8787 12.3692 5.07816 12.3747 5.28798C12.3802 5.4978 12.3045 5.70157 12.1634 5.8563L7.88062 11.2413C7.80698 11.3211 7.7181 11.3851 7.61929 11.4295C7.52048 11.4739 7.41378 11.4978 7.30556 11.4999C7.19735 11.5019 7.08983 11.4819 6.98946 11.4412C6.88908 11.4005 6.79791 11.3399 6.72138 11.2629L3.88122 8.40744C3.80213 8.33334 3.73869 8.24398 3.69469 8.1447C3.65069 8.04542 3.62703 7.93824 3.62513 7.82957C3.62322 7.72089 3.6431 7.61295 3.68359 7.51217C3.72408 7.41138 3.78434 7.31984 3.86079 7.24298C3.93723 7.16612 4.02829 7.10553 4.12853 7.06483C4.22877 7.02412 4.33614 7.00413 4.44423 7.00604C4.55233 7.00796 4.65893 7.03175 4.75768 7.07599C4.85643 7.12022 4.9453 7.184 5.019 7.26352L7.26665 9.52221L10.9945 4.74692C11.0012 4.73861 11.0084 4.73068 11.016 4.72317H11.0149Z" fill="#121213"/>
</svg>
