<svg width="24" height="24" viewBox="0 0 24 24" fill="none" xmlns="http://www.w3.org/2000/svg">
<path d="M6.06777 8.58906L6.06766 8.58917C6.01399 8.64741 5.97185 8.71638 5.94324 8.79178C5.91463 8.86718 5.9 8.94783 5.9 9.0291C5.9 9.11036 5.91463 9.19101 5.94324 9.26641C5.97185 9.34181 6.01399 9.41078 6.06766 9.46902L6.06783 9.4692L11.5653 15.4054L11.5653 15.4054C11.6796 15.5288 11.8352 15.6 11.9995 15.6C12.1638 15.6 12.3194 15.5288 12.4337 15.4054L12.4337 15.4054L17.9311 9.4704C17.9851 9.4121 18.0276 9.34296 18.0564 9.2673C18.0853 9.19165 18.1 9.11068 18.1 9.0291C18.1 8.94751 18.0853 8.86654 18.0564 8.79089C18.0276 8.71523 17.9851 8.64609 17.9311 8.5878C17.821 8.46876 17.671 8.4 17.5124 8.4C17.3538 8.4 17.2037 8.4688 17.0936 8.58791L17.0671 8.61665V8.61774L11.9995 14.0887L6.9053 8.58906L6.83187 8.65694L6.90523 8.58898L6.90526 8.58902C6.79516 8.46993 6.64511 8.40115 6.48653 8.40115C6.32794 8.40115 6.17788 8.46995 6.06777 8.58906Z" fill="#A58E79" stroke="#A58E79" stroke-width="0.2"/>
</svg>
