<svg width="25" height="24" viewBox="0 0 25 24" fill="none" xmlns="http://www.w3.org/2000/svg">
<g clip-path="url(#clip0_4380_31308)">
<path d="M11.4767 15.934C9.59264 15.6786 7.87587 14.7172 6.67356 13.2443C5.47126 11.7714 4.87314 9.8969 5.00017 7.99985C5.1272 6.10279 5.96989 4.32475 7.35784 3.0253C8.74579 1.72585 10.5754 1.00195 12.4767 1C14.3803 0.998168 16.2134 1.72028 17.6044 3.01993C18.9953 4.31959 19.84 6.09953 19.9672 7.99891C20.0944 9.89829 19.4945 11.775 18.2893 13.2485C17.0841 14.722 15.3636 15.682 13.4767 15.934V18H18.4767V20H13.4767V24H11.4767V20H6.47671V18H11.4767V15.934ZM12.4767 14C13.9354 14 15.3344 13.4205 16.3658 12.3891C17.3973 11.3576 17.9767 9.95869 17.9767 8.5C17.9767 7.04131 17.3973 5.64237 16.3658 4.61092C15.3344 3.57947 13.9354 3 12.4767 3C11.018 3 9.61908 3.57947 8.58763 4.61092C7.55618 5.64237 6.97671 7.04131 6.97671 8.5C6.97671 9.95869 7.55618 11.3576 8.58763 12.3891C9.61908 13.4205 11.018 14 12.4767 14Z" fill="#999999"/>
</g>
<defs>
<clipPath id="clip0_4380_31308">
<rect width="24" height="24" fill="white" transform="translate(0.476562)"/>
</clipPath>
</defs>
</svg>
