<svg width="18" height="18" viewBox="0 0 18 18" fill="none" xmlns="http://www.w3.org/2000/svg">
<circle cx="9" cy="9" r="7.5" fill="#FF3A3A"/>
<path d="M8.34746 9.49548C8.35585 9.8482 8.64419 10.1298 8.99701 10.1298V10.1298C9.34983 10.1298 9.63817 9.8482 9.64656 9.49548L9.73972 5.57846C9.74964 5.16136 9.41423 4.81787 8.99701 4.81787V4.81787C8.57979 4.81787 8.24438 5.16136 8.2543 5.57846L8.34746 9.49548ZM8.99976 12.8873C9.55457 12.8873 9.91162 12.5468 9.91162 12.0249C9.91162 11.4976 9.55457 11.157 8.99976 11.157C8.44495 11.157 8.08789 11.4976 8.08789 12.0249C8.08789 12.5468 8.44495 12.8873 8.99976 12.8873Z" fill="white"/>
</svg>
